<?xml version="1.0" encoding="utf-8" standalone="no"?>
<!DOCTYPE svg PUBLIC "-//W3C//DTD SVG 1.1//EN"
  "http://www.w3.org/Graphics/SVG/1.1/DTD/svg11.dtd">
<svg xmlns:xlink="http://www.w3.org/1999/xlink" width="854.64pt" height="476.64pt" viewBox="0 0 854.64 476.64" xmlns="http://www.w3.org/2000/svg" version="1.1">
 <metadata>
  <rdf:RDF xmlns:dc="http://purl.org/dc/elements/1.1/" xmlns:cc="http://creativecommons.org/ns#" xmlns:rdf="http://www.w3.org/1999/02/22-rdf-syntax-ns#">
   <cc:Work>
    <dc:type rdf:resource="http://purl.org/dc/dcmitype/StillImage"/>
    <dc:date>2026-07-18T18:57:12.373070</dc:date>
    <dc:format>image/svg+xml</dc:format>
    <dc:creator>
     <cc:Agent>
      <dc:title>Matplotlib v3.10.9, https://matplotlib.org/</dc:title>
     </cc:Agent>
    </dc:creator>
   </cc:Work>
  </rdf:RDF>
 </metadata>
 <defs>
  <style type="text/css">*{stroke-linejoin: round; stroke-linecap: butt}</style>
 </defs>
 <g id="figure_1">
  <g id="patch_1">
   <path d="M 0 476.64 
L 854.64 476.64 
L 854.64 0 
L 0 0 
z
" style="fill: #ffffff"/>
  </g>
  <g id="axes_1">
   <g id="patch_2">
    <path d="M 60.336875 437.148125 
L 847.44 437.148125 
L 847.44 23.229937 
L 60.336875 23.229937 
z
" style="fill: #ffffff"/>
   </g>
   <g id="matplotlib.axis_1">
    <g id="xtick_1">
     <g id="line2d_1">
      <path d="M 96.11429 437.148125 
L 96.11429 23.229937 
" clip-path="url(#p1db88a0258)" style="fill: none; stroke: #b0b0b0; stroke-opacity: 0.3; stroke-width: 0.8; stroke-linecap: square"/>
     </g>
     <g id="line2d_2">
      <defs>
       <path id="mfa2a5311b7" d="M 0 0 
L 0 3.5 
" style="stroke: #000000; stroke-width: 0.8"/>
      </defs>
      <g>
       <use xlink:href="#mfa2a5311b7" x="96.11429" y="437.148125" style="stroke: #000000; stroke-width: 0.8"/>
      </g>
     </g>
     <g id="text_1">
      <!-- 0 -->
      <g transform="translate(92.614915 452.506406) scale(0.11 -0.11)">
       <defs>
        <path id="DejaVuSans-30" d="M 2034 4250 
Q 1547 4250 1301 3770 
Q 1056 3291 1056 2328 
Q 1056 1369 1301 889 
Q 1547 409 2034 409 
Q 2525 409 2770 889 
Q 3016 1369 3016 2328 
Q 3016 3291 2770 3770 
Q 2525 4250 2034 4250 
z
M 2034 4750 
Q 2819 4750 3233 4129 
Q 3647 3509 3647 2328 
Q 3647 1150 3233 529 
Q 2819 -91 2034 -91 
Q 1250 -91 836 529 
Q 422 1150 422 2328 
Q 422 3509 836 4129 
Q 1250 4750 2034 4750 
z
" transform="scale(0.015625)"/>
       </defs>
       <use xlink:href="#DejaVuSans-30"/>
      </g>
     </g>
    </g>
    <g id="xtick_2">
     <g id="line2d_3">
      <path d="M 242.144554 437.148125 
L 242.144554 23.229937 
" clip-path="url(#p1db88a0258)" style="fill: none; stroke: #b0b0b0; stroke-opacity: 0.3; stroke-width: 0.8; stroke-linecap: square"/>
     </g>
     <g id="line2d_4">
      <g>
       <use xlink:href="#mfa2a5311b7" x="242.144554" y="437.148125" style="stroke: #000000; stroke-width: 0.8"/>
      </g>
     </g>
     <g id="text_2">
      <!-- 10 -->
      <g transform="translate(235.145804 452.506406) scale(0.11 -0.11)">
       <defs>
        <path id="DejaVuSans-31" d="M 794 531 
L 1825 531 
L 1825 4091 
L 703 3866 
L 703 4441 
L 1819 4666 
L 2450 4666 
L 2450 531 
L 3481 531 
L 3481 0 
L 794 0 
L 794 531 
z
" transform="scale(0.015625)"/>
       </defs>
       <use xlink:href="#DejaVuSans-31"/>
       <use xlink:href="#DejaVuSans-30" transform="translate(63.623047 0)"/>
      </g>
     </g>
    </g>
    <g id="xtick_3">
     <g id="line2d_5">
      <path d="M 388.174819 437.148125 
L 388.174819 23.229937 
" clip-path="url(#p1db88a0258)" style="fill: none; stroke: #b0b0b0; stroke-opacity: 0.3; stroke-width: 0.8; stroke-linecap: square"/>
     </g>
     <g id="line2d_6">
      <g>
       <use xlink:href="#mfa2a5311b7" x="388.174819" y="437.148125" style="stroke: #000000; stroke-width: 0.8"/>
      </g>
     </g>
     <g id="text_3">
      <!-- 20 -->
      <g transform="translate(381.176069 452.506406) scale(0.11 -0.11)">
       <defs>
        <path id="DejaVuSans-32" d="M 1228 531 
L 3431 531 
L 3431 0 
L 469 0 
L 469 531 
Q 828 903 1448 1529 
Q 2069 2156 2228 2338 
Q 2531 2678 2651 2914 
Q 2772 3150 2772 3378 
Q 2772 3750 2511 3984 
Q 2250 4219 1831 4219 
Q 1534 4219 1204 4116 
Q 875 4013 500 3803 
L 500 4441 
Q 881 4594 1212 4672 
Q 1544 4750 1819 4750 
Q 2544 4750 2975 4387 
Q 3406 4025 3406 3419 
Q 3406 3131 3298 2873 
Q 3191 2616 2906 2266 
Q 2828 2175 2409 1742 
Q 1991 1309 1228 531 
z
" transform="scale(0.015625)"/>
       </defs>
       <use xlink:href="#DejaVuSans-32"/>
       <use xlink:href="#DejaVuSans-30" transform="translate(63.623047 0)"/>
      </g>
     </g>
    </g>
    <g id="xtick_4">
     <g id="line2d_7">
      <path d="M 534.205083 437.148125 
L 534.205083 23.229937 
" clip-path="url(#p1db88a0258)" style="fill: none; stroke: #b0b0b0; stroke-opacity: 0.3; stroke-width: 0.8; stroke-linecap: square"/>
     </g>
     <g id="line2d_8">
      <g>
       <use xlink:href="#mfa2a5311b7" x="534.205083" y="437.148125" style="stroke: #000000; stroke-width: 0.8"/>
      </g>
     </g>
     <g id="text_4">
      <!-- 30 -->
      <g transform="translate(527.206333 452.506406) scale(0.11 -0.11)">
       <defs>
        <path id="DejaVuSans-33" d="M 2597 2516 
Q 3050 2419 3304 2112 
Q 3559 1806 3559 1356 
Q 3559 666 3084 287 
Q 2609 -91 1734 -91 
Q 1441 -91 1130 -33 
Q 819 25 488 141 
L 488 750 
Q 750 597 1062 519 
Q 1375 441 1716 441 
Q 2309 441 2620 675 
Q 2931 909 2931 1356 
Q 2931 1769 2642 2001 
Q 2353 2234 1838 2234 
L 1294 2234 
L 1294 2753 
L 1863 2753 
Q 2328 2753 2575 2939 
Q 2822 3125 2822 3475 
Q 2822 3834 2567 4026 
Q 2313 4219 1838 4219 
Q 1578 4219 1281 4162 
Q 984 4106 628 3988 
L 628 4550 
Q 988 4650 1302 4700 
Q 1616 4750 1894 4750 
Q 2613 4750 3031 4423 
Q 3450 4097 3450 3541 
Q 3450 3153 3228 2886 
Q 3006 2619 2597 2516 
z
" transform="scale(0.015625)"/>
       </defs>
       <use xlink:href="#DejaVuSans-33"/>
       <use xlink:href="#DejaVuSans-30" transform="translate(63.623047 0)"/>
      </g>
     </g>
    </g>
    <g id="xtick_5">
     <g id="line2d_9">
      <path d="M 680.235347 437.148125 
L 680.235347 23.229937 
" clip-path="url(#p1db88a0258)" style="fill: none; stroke: #b0b0b0; stroke-opacity: 0.3; stroke-width: 0.8; stroke-linecap: square"/>
     </g>
     <g id="line2d_10">
      <g>
       <use xlink:href="#mfa2a5311b7" x="680.235347" y="437.148125" style="stroke: #000000; stroke-width: 0.8"/>
      </g>
     </g>
     <g id="text_5">
      <!-- 40 -->
      <g transform="translate(673.236597 452.506406) scale(0.11 -0.11)">
       <defs>
        <path id="DejaVuSans-34" d="M 2419 4116 
L 825 1625 
L 2419 1625 
L 2419 4116 
z
M 2253 4666 
L 3047 4666 
L 3047 1625 
L 3713 1625 
L 3713 1100 
L 3047 1100 
L 3047 0 
L 2419 0 
L 2419 1100 
L 313 1100 
L 313 1709 
L 2253 4666 
z
" transform="scale(0.015625)"/>
       </defs>
       <use xlink:href="#DejaVuSans-34"/>
       <use xlink:href="#DejaVuSans-30" transform="translate(63.623047 0)"/>
      </g>
     </g>
    </g>
    <g id="xtick_6">
     <g id="line2d_11">
      <path d="M 826.265612 437.148125 
L 826.265612 23.229937 
" clip-path="url(#p1db88a0258)" style="fill: none; stroke: #b0b0b0; stroke-opacity: 0.3; stroke-width: 0.8; stroke-linecap: square"/>
     </g>
     <g id="line2d_12">
      <g>
       <use xlink:href="#mfa2a5311b7" x="826.265612" y="437.148125" style="stroke: #000000; stroke-width: 0.8"/>
      </g>
     </g>
     <g id="text_6">
      <!-- 50 -->
      <g transform="translate(819.266862 452.506406) scale(0.11 -0.11)">
       <defs>
        <path id="DejaVuSans-35" d="M 691 4666 
L 3169 4666 
L 3169 4134 
L 1269 4134 
L 1269 2991 
Q 1406 3038 1543 3061 
Q 1681 3084 1819 3084 
Q 2600 3084 3056 2656 
Q 3513 2228 3513 1497 
Q 3513 744 3044 326 
Q 2575 -91 1722 -91 
Q 1428 -91 1123 -41 
Q 819 9 494 109 
L 494 744 
Q 775 591 1075 516 
Q 1375 441 1709 441 
Q 2250 441 2565 725 
Q 2881 1009 2881 1497 
Q 2881 1984 2565 2268 
Q 2250 2553 1709 2553 
Q 1456 2553 1204 2497 
Q 953 2441 691 2322 
L 691 4666 
z
" transform="scale(0.015625)"/>
       </defs>
       <use xlink:href="#DejaVuSans-35"/>
       <use xlink:href="#DejaVuSans-30" transform="translate(63.623047 0)"/>
      </g>
     </g>
    </g>
    <g id="text_7">
     <!-- source video frame -->
     <g transform="translate(400.797109 467.152344) scale(0.11 -0.11)">
      <defs>
       <path id="DejaVuSans-73" d="M 2834 3397 
L 2834 2853 
Q 2591 2978 2328 3040 
Q 2066 3103 1784 3103 
Q 1356 3103 1142 2972 
Q 928 2841 928 2578 
Q 928 2378 1081 2264 
Q 1234 2150 1697 2047 
L 1894 2003 
Q 2506 1872 2764 1633 
Q 3022 1394 3022 966 
Q 3022 478 2636 193 
Q 2250 -91 1575 -91 
Q 1294 -91 989 -36 
Q 684 19 347 128 
L 347 722 
Q 666 556 975 473 
Q 1284 391 1588 391 
Q 1994 391 2212 530 
Q 2431 669 2431 922 
Q 2431 1156 2273 1281 
Q 2116 1406 1581 1522 
L 1381 1569 
Q 847 1681 609 1914 
Q 372 2147 372 2553 
Q 372 3047 722 3315 
Q 1072 3584 1716 3584 
Q 2034 3584 2315 3537 
Q 2597 3491 2834 3397 
z
" transform="scale(0.015625)"/>
       <path id="DejaVuSans-6f" d="M 1959 3097 
Q 1497 3097 1228 2736 
Q 959 2375 959 1747 
Q 959 1119 1226 758 
Q 1494 397 1959 397 
Q 2419 397 2687 759 
Q 2956 1122 2956 1747 
Q 2956 2369 2687 2733 
Q 2419 3097 1959 3097 
z
M 1959 3584 
Q 2709 3584 3137 3096 
Q 3566 2609 3566 1747 
Q 3566 888 3137 398 
Q 2709 -91 1959 -91 
Q 1206 -91 779 398 
Q 353 888 353 1747 
Q 353 2609 779 3096 
Q 1206 3584 1959 3584 
z
" transform="scale(0.015625)"/>
       <path id="DejaVuSans-75" d="M 544 1381 
L 544 3500 
L 1119 3500 
L 1119 1403 
Q 1119 906 1312 657 
Q 1506 409 1894 409 
Q 2359 409 2629 706 
Q 2900 1003 2900 1516 
L 2900 3500 
L 3475 3500 
L 3475 0 
L 2900 0 
L 2900 538 
Q 2691 219 2414 64 
Q 2138 -91 1772 -91 
Q 1169 -91 856 284 
Q 544 659 544 1381 
z
M 1991 3584 
L 1991 3584 
z
" transform="scale(0.015625)"/>
       <path id="DejaVuSans-72" d="M 2631 2963 
Q 2534 3019 2420 3045 
Q 2306 3072 2169 3072 
Q 1681 3072 1420 2755 
Q 1159 2438 1159 1844 
L 1159 0 
L 581 0 
L 581 3500 
L 1159 3500 
L 1159 2956 
Q 1341 3275 1631 3429 
Q 1922 3584 2338 3584 
Q 2397 3584 2469 3576 
Q 2541 3569 2628 3553 
L 2631 2963 
z
" transform="scale(0.015625)"/>
       <path id="DejaVuSans-63" d="M 3122 3366 
L 3122 2828 
Q 2878 2963 2633 3030 
Q 2388 3097 2138 3097 
Q 1578 3097 1268 2742 
Q 959 2388 959 1747 
Q 959 1106 1268 751 
Q 1578 397 2138 397 
Q 2388 397 2633 464 
Q 2878 531 3122 666 
L 3122 134 
Q 2881 22 2623 -34 
Q 2366 -91 2075 -91 
Q 1284 -91 818 406 
Q 353 903 353 1747 
Q 353 2603 823 3093 
Q 1294 3584 2113 3584 
Q 2378 3584 2631 3529 
Q 2884 3475 3122 3366 
z
" transform="scale(0.015625)"/>
       <path id="DejaVuSans-65" d="M 3597 1894 
L 3597 1613 
L 953 1613 
Q 991 1019 1311 708 
Q 1631 397 2203 397 
Q 2534 397 2845 478 
Q 3156 559 3463 722 
L 3463 178 
Q 3153 47 2828 -22 
Q 2503 -91 2169 -91 
Q 1331 -91 842 396 
Q 353 884 353 1716 
Q 353 2575 817 3079 
Q 1281 3584 2069 3584 
Q 2775 3584 3186 3129 
Q 3597 2675 3597 1894 
z
M 3022 2063 
Q 3016 2534 2758 2815 
Q 2500 3097 2075 3097 
Q 1594 3097 1305 2825 
Q 1016 2553 972 2059 
L 3022 2063 
z
" transform="scale(0.015625)"/>
       <path id="DejaVuSans-20" transform="scale(0.015625)"/>
       <path id="DejaVuSans-76" d="M 191 3500 
L 800 3500 
L 1894 563 
L 2988 3500 
L 3597 3500 
L 2284 0 
L 1503 0 
L 191 3500 
z
" transform="scale(0.015625)"/>
       <path id="DejaVuSans-69" d="M 603 3500 
L 1178 3500 
L 1178 0 
L 603 0 
L 603 3500 
z
M 603 4863 
L 1178 4863 
L 1178 4134 
L 603 4134 
L 603 4863 
z
" transform="scale(0.015625)"/>
       <path id="DejaVuSans-64" d="M 2906 2969 
L 2906 4863 
L 3481 4863 
L 3481 0 
L 2906 0 
L 2906 525 
Q 2725 213 2448 61 
Q 2172 -91 1784 -91 
Q 1150 -91 751 415 
Q 353 922 353 1747 
Q 353 2572 751 3078 
Q 1150 3584 1784 3584 
Q 2172 3584 2448 3432 
Q 2725 3281 2906 2969 
z
M 947 1747 
Q 947 1113 1208 752 
Q 1469 391 1925 391 
Q 2381 391 2643 752 
Q 2906 1113 2906 1747 
Q 2906 2381 2643 2742 
Q 2381 3103 1925 3103 
Q 1469 3103 1208 2742 
Q 947 2381 947 1747 
z
" transform="scale(0.015625)"/>
       <path id="DejaVuSans-66" d="M 2375 4863 
L 2375 4384 
L 1825 4384 
Q 1516 4384 1395 4259 
Q 1275 4134 1275 3809 
L 1275 3500 
L 2222 3500 
L 2222 3053 
L 1275 3053 
L 1275 0 
L 697 0 
L 697 3053 
L 147 3053 
L 147 3500 
L 697 3500 
L 697 3744 
Q 697 4328 969 4595 
Q 1241 4863 1831 4863 
L 2375 4863 
z
" transform="scale(0.015625)"/>
       <path id="DejaVuSans-61" d="M 2194 1759 
Q 1497 1759 1228 1600 
Q 959 1441 959 1056 
Q 959 750 1161 570 
Q 1363 391 1709 391 
Q 2188 391 2477 730 
Q 2766 1069 2766 1631 
L 2766 1759 
L 2194 1759 
z
M 3341 1997 
L 3341 0 
L 2766 0 
L 2766 531 
Q 2569 213 2275 61 
Q 1981 -91 1556 -91 
Q 1019 -91 701 211 
Q 384 513 384 1019 
Q 384 1609 779 1909 
Q 1175 2209 1959 2209 
L 2766 2209 
L 2766 2266 
Q 2766 2663 2505 2880 
Q 2244 3097 1772 3097 
Q 1472 3097 1187 3025 
Q 903 2953 641 2809 
L 641 3341 
Q 956 3463 1253 3523 
Q 1550 3584 1831 3584 
Q 2591 3584 2966 3190 
Q 3341 2797 3341 1997 
z
" transform="scale(0.015625)"/>
       <path id="DejaVuSans-6d" d="M 3328 2828 
Q 3544 3216 3844 3400 
Q 4144 3584 4550 3584 
Q 5097 3584 5394 3201 
Q 5691 2819 5691 2113 
L 5691 0 
L 5113 0 
L 5113 2094 
Q 5113 2597 4934 2840 
Q 4756 3084 4391 3084 
Q 3944 3084 3684 2787 
Q 3425 2491 3425 1978 
L 3425 0 
L 2847 0 
L 2847 2094 
Q 2847 2600 2669 2842 
Q 2491 3084 2119 3084 
Q 1678 3084 1418 2786 
Q 1159 2488 1159 1978 
L 1159 0 
L 581 0 
L 581 3500 
L 1159 3500 
L 1159 2956 
Q 1356 3278 1631 3431 
Q 1906 3584 2284 3584 
Q 2666 3584 2933 3390 
Q 3200 3197 3328 2828 
z
" transform="scale(0.015625)"/>
      </defs>
      <use xlink:href="#DejaVuSans-73"/>
      <use xlink:href="#DejaVuSans-6f" transform="translate(52.099609 0)"/>
      <use xlink:href="#DejaVuSans-75" transform="translate(113.28125 0)"/>
      <use xlink:href="#DejaVuSans-72" transform="translate(176.660156 0)"/>
      <use xlink:href="#DejaVuSans-63" transform="translate(215.523438 0)"/>
      <use xlink:href="#DejaVuSans-65" transform="translate(270.503906 0)"/>
      <use xlink:href="#DejaVuSans-20" transform="translate(332.027344 0)"/>
      <use xlink:href="#DejaVuSans-76" transform="translate(363.814453 0)"/>
      <use xlink:href="#DejaVuSans-69" transform="translate(422.994141 0)"/>
      <use xlink:href="#DejaVuSans-64" transform="translate(450.777344 0)"/>
      <use xlink:href="#DejaVuSans-65" transform="translate(514.253906 0)"/>
      <use xlink:href="#DejaVuSans-6f" transform="translate(575.777344 0)"/>
      <use xlink:href="#DejaVuSans-20" transform="translate(636.958984 0)"/>
      <use xlink:href="#DejaVuSans-66" transform="translate(668.746094 0)"/>
      <use xlink:href="#DejaVuSans-72" transform="translate(703.951172 0)"/>
      <use xlink:href="#DejaVuSans-61" transform="translate(745.064453 0)"/>
      <use xlink:href="#DejaVuSans-6d" transform="translate(806.34375 0)"/>
      <use xlink:href="#DejaVuSans-65" transform="translate(903.755859 0)"/>
     </g>
    </g>
   </g>
   <g id="matplotlib.axis_2">
    <g id="ytick_1">
     <g id="line2d_13">
      <path d="M 60.336875 402.227896 
L 847.44 402.227896 
" clip-path="url(#p1db88a0258)" style="fill: none; stroke: #b0b0b0; stroke-opacity: 0.3; stroke-width: 0.8; stroke-linecap: square"/>
     </g>
     <g id="line2d_14">
      <defs>
       <path id="mfc06bc5096" d="M 0 0 
L -3.5 0 
" style="stroke: #000000; stroke-width: 0.8"/>
      </defs>
      <g>
       <use xlink:href="#mfc06bc5096" x="60.336875" y="402.227896" style="stroke: #000000; stroke-width: 0.8"/>
      </g>
     </g>
     <g id="text_8">
      <!-- 177.5 -->
      <g transform="translate(21.845938 406.407037) scale(0.11 -0.11)">
       <defs>
        <path id="DejaVuSans-37" d="M 525 4666 
L 3525 4666 
L 3525 4397 
L 1831 0 
L 1172 0 
L 2766 4134 
L 525 4134 
L 525 4666 
z
" transform="scale(0.015625)"/>
        <path id="DejaVuSans-2e" d="M 684 794 
L 1344 794 
L 1344 0 
L 684 0 
L 684 794 
z
" transform="scale(0.015625)"/>
       </defs>
       <use xlink:href="#DejaVuSans-31"/>
       <use xlink:href="#DejaVuSans-37" transform="translate(63.623047 0)"/>
       <use xlink:href="#DejaVuSans-37" transform="translate(127.246094 0)"/>
       <use xlink:href="#DejaVuSans-2e" transform="translate(190.869141 0)"/>
       <use xlink:href="#DejaVuSans-35" transform="translate(222.65625 0)"/>
      </g>
     </g>
    </g>
    <g id="ytick_2">
     <g id="line2d_15">
      <path d="M 60.336875 329.019868 
L 847.44 329.019868 
" clip-path="url(#p1db88a0258)" style="fill: none; stroke: #b0b0b0; stroke-opacity: 0.3; stroke-width: 0.8; stroke-linecap: square"/>
     </g>
     <g id="line2d_16">
      <g>
       <use xlink:href="#mfc06bc5096" x="60.336875" y="329.019868" style="stroke: #000000; stroke-width: 0.8"/>
      </g>
     </g>
     <g id="text_9">
      <!-- 178.0 -->
      <g transform="translate(21.845938 333.199009) scale(0.11 -0.11)">
       <defs>
        <path id="DejaVuSans-38" d="M 2034 2216 
Q 1584 2216 1326 1975 
Q 1069 1734 1069 1313 
Q 1069 891 1326 650 
Q 1584 409 2034 409 
Q 2484 409 2743 651 
Q 3003 894 3003 1313 
Q 3003 1734 2745 1975 
Q 2488 2216 2034 2216 
z
M 1403 2484 
Q 997 2584 770 2862 
Q 544 3141 544 3541 
Q 544 4100 942 4425 
Q 1341 4750 2034 4750 
Q 2731 4750 3128 4425 
Q 3525 4100 3525 3541 
Q 3525 3141 3298 2862 
Q 3072 2584 2669 2484 
Q 3125 2378 3379 2068 
Q 3634 1759 3634 1313 
Q 3634 634 3220 271 
Q 2806 -91 2034 -91 
Q 1263 -91 848 271 
Q 434 634 434 1313 
Q 434 1759 690 2068 
Q 947 2378 1403 2484 
z
M 1172 3481 
Q 1172 3119 1398 2916 
Q 1625 2713 2034 2713 
Q 2441 2713 2670 2916 
Q 2900 3119 2900 3481 
Q 2900 3844 2670 4047 
Q 2441 4250 2034 4250 
Q 1625 4250 1398 4047 
Q 1172 3844 1172 3481 
z
" transform="scale(0.015625)"/>
       </defs>
       <use xlink:href="#DejaVuSans-31"/>
       <use xlink:href="#DejaVuSans-37" transform="translate(63.623047 0)"/>
       <use xlink:href="#DejaVuSans-38" transform="translate(127.246094 0)"/>
       <use xlink:href="#DejaVuSans-2e" transform="translate(190.869141 0)"/>
       <use xlink:href="#DejaVuSans-30" transform="translate(222.65625 0)"/>
      </g>
     </g>
    </g>
    <g id="ytick_3">
     <g id="line2d_17">
      <path d="M 60.336875 255.811841 
L 847.44 255.811841 
" clip-path="url(#p1db88a0258)" style="fill: none; stroke: #b0b0b0; stroke-opacity: 0.3; stroke-width: 0.8; stroke-linecap: square"/>
     </g>
     <g id="line2d_18">
      <g>
       <use xlink:href="#mfc06bc5096" x="60.336875" y="255.811841" style="stroke: #000000; stroke-width: 0.8"/>
      </g>
     </g>
     <g id="text_10">
      <!-- 178.5 -->
      <g transform="translate(21.845938 259.990982) scale(0.11 -0.11)">
       <use xlink:href="#DejaVuSans-31"/>
       <use xlink:href="#DejaVuSans-37" transform="translate(63.623047 0)"/>
       <use xlink:href="#DejaVuSans-38" transform="translate(127.246094 0)"/>
       <use xlink:href="#DejaVuSans-2e" transform="translate(190.869141 0)"/>
       <use xlink:href="#DejaVuSans-35" transform="translate(222.65625 0)"/>
      </g>
     </g>
    </g>
    <g id="ytick_4">
     <g id="line2d_19">
      <path d="M 60.336875 182.603813 
L 847.44 182.603813 
" clip-path="url(#p1db88a0258)" style="fill: none; stroke: #b0b0b0; stroke-opacity: 0.3; stroke-width: 0.8; stroke-linecap: square"/>
     </g>
     <g id="line2d_20">
      <g>
       <use xlink:href="#mfc06bc5096" x="60.336875" y="182.603813" style="stroke: #000000; stroke-width: 0.8"/>
      </g>
     </g>
     <g id="text_11">
      <!-- 179.0 -->
      <g transform="translate(21.845938 186.782954) scale(0.11 -0.11)">
       <defs>
        <path id="DejaVuSans-39" d="M 703 97 
L 703 672 
Q 941 559 1184 500 
Q 1428 441 1663 441 
Q 2288 441 2617 861 
Q 2947 1281 2994 2138 
Q 2813 1869 2534 1725 
Q 2256 1581 1919 1581 
Q 1219 1581 811 2004 
Q 403 2428 403 3163 
Q 403 3881 828 4315 
Q 1253 4750 1959 4750 
Q 2769 4750 3195 4129 
Q 3622 3509 3622 2328 
Q 3622 1225 3098 567 
Q 2575 -91 1691 -91 
Q 1453 -91 1209 -44 
Q 966 3 703 97 
z
M 1959 2075 
Q 2384 2075 2632 2365 
Q 2881 2656 2881 3163 
Q 2881 3666 2632 3958 
Q 2384 4250 1959 4250 
Q 1534 4250 1286 3958 
Q 1038 3666 1038 3163 
Q 1038 2656 1286 2365 
Q 1534 2075 1959 2075 
z
" transform="scale(0.015625)"/>
       </defs>
       <use xlink:href="#DejaVuSans-31"/>
       <use xlink:href="#DejaVuSans-37" transform="translate(63.623047 0)"/>
       <use xlink:href="#DejaVuSans-39" transform="translate(127.246094 0)"/>
       <use xlink:href="#DejaVuSans-2e" transform="translate(190.869141 0)"/>
       <use xlink:href="#DejaVuSans-30" transform="translate(222.65625 0)"/>
      </g>
     </g>
    </g>
    <g id="ytick_5">
     <g id="line2d_21">
      <path d="M 60.336875 109.395786 
L 847.44 109.395786 
" clip-path="url(#p1db88a0258)" style="fill: none; stroke: #b0b0b0; stroke-opacity: 0.3; stroke-width: 0.8; stroke-linecap: square"/>
     </g>
     <g id="line2d_22">
      <g>
       <use xlink:href="#mfc06bc5096" x="60.336875" y="109.395786" style="stroke: #000000; stroke-width: 0.8"/>
      </g>
     </g>
     <g id="text_12">
      <!-- 179.5 -->
      <g transform="translate(21.845938 113.574926) scale(0.11 -0.11)">
       <use xlink:href="#DejaVuSans-31"/>
       <use xlink:href="#DejaVuSans-37" transform="translate(63.623047 0)"/>
       <use xlink:href="#DejaVuSans-39" transform="translate(127.246094 0)"/>
       <use xlink:href="#DejaVuSans-2e" transform="translate(190.869141 0)"/>
       <use xlink:href="#DejaVuSans-35" transform="translate(222.65625 0)"/>
      </g>
     </g>
    </g>
    <g id="ytick_6">
     <g id="line2d_23">
      <path d="M 60.336875 36.187758 
L 847.44 36.187758 
" clip-path="url(#p1db88a0258)" style="fill: none; stroke: #b0b0b0; stroke-opacity: 0.3; stroke-width: 0.8; stroke-linecap: square"/>
     </g>
     <g id="line2d_24">
      <g>
       <use xlink:href="#mfc06bc5096" x="60.336875" y="36.187758" style="stroke: #000000; stroke-width: 0.8"/>
      </g>
     </g>
     <g id="text_13">
      <!-- 180.0 -->
      <g transform="translate(21.845938 40.366899) scale(0.11 -0.11)">
       <use xlink:href="#DejaVuSans-31"/>
       <use xlink:href="#DejaVuSans-38" transform="translate(63.623047 0)"/>
       <use xlink:href="#DejaVuSans-30" transform="translate(127.246094 0)"/>
       <use xlink:href="#DejaVuSans-2e" transform="translate(190.869141 0)"/>
       <use xlink:href="#DejaVuSans-30" transform="translate(222.65625 0)"/>
      </g>
     </g>
    </g>
    <g id="text_14">
     <!-- angle (deg) -->
     <g transform="translate(15.558281 261.856141) rotate(-90) scale(0.11 -0.11)">
      <defs>
       <path id="DejaVuSans-6e" d="M 3513 2113 
L 3513 0 
L 2938 0 
L 2938 2094 
Q 2938 2591 2744 2837 
Q 2550 3084 2163 3084 
Q 1697 3084 1428 2787 
Q 1159 2491 1159 1978 
L 1159 0 
L 581 0 
L 581 3500 
L 1159 3500 
L 1159 2956 
Q 1366 3272 1645 3428 
Q 1925 3584 2291 3584 
Q 2894 3584 3203 3211 
Q 3513 2838 3513 2113 
z
" transform="scale(0.015625)"/>
       <path id="DejaVuSans-67" d="M 2906 1791 
Q 2906 2416 2648 2759 
Q 2391 3103 1925 3103 
Q 1463 3103 1205 2759 
Q 947 2416 947 1791 
Q 947 1169 1205 825 
Q 1463 481 1925 481 
Q 2391 481 2648 825 
Q 2906 1169 2906 1791 
z
M 3481 434 
Q 3481 -459 3084 -895 
Q 2688 -1331 1869 -1331 
Q 1566 -1331 1297 -1286 
Q 1028 -1241 775 -1147 
L 775 -588 
Q 1028 -725 1275 -790 
Q 1522 -856 1778 -856 
Q 2344 -856 2625 -561 
Q 2906 -266 2906 331 
L 2906 616 
Q 2728 306 2450 153 
Q 2172 0 1784 0 
Q 1141 0 747 490 
Q 353 981 353 1791 
Q 353 2603 747 3093 
Q 1141 3584 1784 3584 
Q 2172 3584 2450 3431 
Q 2728 3278 2906 2969 
L 2906 3500 
L 3481 3500 
L 3481 434 
z
" transform="scale(0.015625)"/>
       <path id="DejaVuSans-6c" d="M 603 4863 
L 1178 4863 
L 1178 0 
L 603 0 
L 603 4863 
z
" transform="scale(0.015625)"/>
       <path id="DejaVuSans-28" d="M 1984 4856 
Q 1566 4138 1362 3434 
Q 1159 2731 1159 2009 
Q 1159 1288 1364 580 
Q 1569 -128 1984 -844 
L 1484 -844 
Q 1016 -109 783 600 
Q 550 1309 550 2009 
Q 550 2706 781 3412 
Q 1013 4119 1484 4856 
L 1984 4856 
z
" transform="scale(0.015625)"/>
       <path id="DejaVuSans-29" d="M 513 4856 
L 1013 4856 
Q 1481 4119 1714 3412 
Q 1947 2706 1947 2009 
Q 1947 1309 1714 600 
Q 1481 -109 1013 -844 
L 513 -844 
Q 928 -128 1133 580 
Q 1338 1288 1338 2009 
Q 1338 2731 1133 3434 
Q 928 4138 513 4856 
z
" transform="scale(0.015625)"/>
      </defs>
      <use xlink:href="#DejaVuSans-61"/>
      <use xlink:href="#DejaVuSans-6e" transform="translate(61.279297 0)"/>
      <use xlink:href="#DejaVuSans-67" transform="translate(124.658203 0)"/>
      <use xlink:href="#DejaVuSans-6c" transform="translate(188.134766 0)"/>
      <use xlink:href="#DejaVuSans-65" transform="translate(215.917969 0)"/>
      <use xlink:href="#DejaVuSans-20" transform="translate(277.441406 0)"/>
      <use xlink:href="#DejaVuSans-28" transform="translate(309.228516 0)"/>
      <use xlink:href="#DejaVuSans-64" transform="translate(348.242188 0)"/>
      <use xlink:href="#DejaVuSans-65" transform="translate(411.71875 0)"/>
      <use xlink:href="#DejaVuSans-67" transform="translate(473.242188 0)"/>
      <use xlink:href="#DejaVuSans-29" transform="translate(536.71875 0)"/>
     </g>
    </g>
   </g>
   <g id="line2d_25">
    <path d="M 96.11429 66.93513 
L 110.717316 66.93513 
L 125.320343 116.716589 
L 139.923369 154.784763 
L 154.526396 179.675492 
L 169.129422 192.852937 
L 183.732448 192.852937 
L 198.335475 179.675492 
L 212.938501 153.320602 
L 227.541528 115.252428 
L 242.144554 64.006809 
L 256.747581 68.39929 
L 271.350607 135.750676 
L 285.953633 201.637901 
L 300.55666 255.811841 
L 315.159686 285.095052 
L 329.762713 285.095052 
L 344.365739 252.88352 
L 358.968766 198.709579 
L 373.571792 132.822355 
L 388.174819 66.93513 
L 402.777845 66.93513 
L 417.380871 116.716589 
L 431.983898 154.784763 
L 446.586924 179.675492 
L 461.189951 192.852937 
L 475.792977 192.852937 
L 490.396004 179.675492 
L 504.99903 153.320602 
L 519.602056 115.252428 
L 534.205083 64.006809 
L 548.808109 68.39929 
L 563.411136 135.750676 
L 578.014162 201.637901 
L 592.617189 255.811841 
L 607.220215 285.095052 
L 621.823242 285.095052 
L 636.426268 252.88352 
L 651.029294 198.709579 
L 665.632321 132.822355 
L 680.235347 66.93513 
L 694.838374 66.93513 
L 709.4414 116.716589 
L 724.044427 154.784763 
L 738.647453 179.675492 
L 753.250479 192.852937 
L 767.853506 192.852937 
L 782.456532 179.675492 
L 797.059559 153.320602 
L 811.662585 115.252428 
" clip-path="url(#p1db88a0258)" style="fill: none; stroke: #1f77b4; stroke-width: 1.5; stroke-linecap: square"/>
    <defs>
     <path id="m2c519add9e" d="M 0 1.5 
C 0.397805 1.5 0.77937 1.341951 1.06066 1.06066 
C 1.341951 0.77937 1.5 0.397805 1.5 0 
C 1.5 -0.397805 1.341951 -0.77937 1.06066 -1.06066 
C 0.77937 -1.341951 0.397805 -1.5 0 -1.5 
C -0.397805 -1.5 -0.77937 -1.341951 -1.06066 -1.06066 
C -1.341951 -0.77937 -1.5 -0.397805 -1.5 0 
C -1.5 0.397805 -1.341951 0.77937 -1.06066 1.06066 
C -0.77937 1.341951 -0.397805 1.5 0 1.5 
z
" style="stroke: #1f77b4"/>
    </defs>
    <g clip-path="url(#p1db88a0258)">
     <use xlink:href="#m2c519add9e" x="96.11429" y="66.93513" style="fill: #1f77b4; stroke: #1f77b4"/>
     <use xlink:href="#m2c519add9e" x="110.717316" y="66.93513" style="fill: #1f77b4; stroke: #1f77b4"/>
     <use xlink:href="#m2c519add9e" x="125.320343" y="116.716589" style="fill: #1f77b4; stroke: #1f77b4"/>
     <use xlink:href="#m2c519add9e" x="139.923369" y="154.784763" style="fill: #1f77b4; stroke: #1f77b4"/>
     <use xlink:href="#m2c519add9e" x="154.526396" y="179.675492" style="fill: #1f77b4; stroke: #1f77b4"/>
     <use xlink:href="#m2c519add9e" x="169.129422" y="192.852937" style="fill: #1f77b4; stroke: #1f77b4"/>
     <use xlink:href="#m2c519add9e" x="183.732448" y="192.852937" style="fill: #1f77b4; stroke: #1f77b4"/>
     <use xlink:href="#m2c519add9e" x="198.335475" y="179.675492" style="fill: #1f77b4; stroke: #1f77b4"/>
     <use xlink:href="#m2c519add9e" x="212.938501" y="153.320602" style="fill: #1f77b4; stroke: #1f77b4"/>
     <use xlink:href="#m2c519add9e" x="227.541528" y="115.252428" style="fill: #1f77b4; stroke: #1f77b4"/>
     <use xlink:href="#m2c519add9e" x="242.144554" y="64.006809" style="fill: #1f77b4; stroke: #1f77b4"/>
     <use xlink:href="#m2c519add9e" x="256.747581" y="68.39929" style="fill: #1f77b4; stroke: #1f77b4"/>
     <use xlink:href="#m2c519add9e" x="271.350607" y="135.750676" style="fill: #1f77b4; stroke: #1f77b4"/>
     <use xlink:href="#m2c519add9e" x="285.953633" y="201.637901" style="fill: #1f77b4; stroke: #1f77b4"/>
     <use xlink:href="#m2c519add9e" x="300.55666" y="255.811841" style="fill: #1f77b4; stroke: #1f77b4"/>
     <use xlink:href="#m2c519add9e" x="315.159686" y="285.095052" style="fill: #1f77b4; stroke: #1f77b4"/>
     <use xlink:href="#m2c519add9e" x="329.762713" y="285.095052" style="fill: #1f77b4; stroke: #1f77b4"/>
     <use xlink:href="#m2c519add9e" x="344.365739" y="252.88352" style="fill: #1f77b4; stroke: #1f77b4"/>
     <use xlink:href="#m2c519add9e" x="358.968766" y="198.709579" style="fill: #1f77b4; stroke: #1f77b4"/>
     <use xlink:href="#m2c519add9e" x="373.571792" y="132.822355" style="fill: #1f77b4; stroke: #1f77b4"/>
     <use xlink:href="#m2c519add9e" x="388.174819" y="66.93513" style="fill: #1f77b4; stroke: #1f77b4"/>
     <use xlink:href="#m2c519add9e" x="402.777845" y="66.93513" style="fill: #1f77b4; stroke: #1f77b4"/>
     <use xlink:href="#m2c519add9e" x="417.380871" y="116.716589" style="fill: #1f77b4; stroke: #1f77b4"/>
     <use xlink:href="#m2c519add9e" x="431.983898" y="154.784763" style="fill: #1f77b4; stroke: #1f77b4"/>
     <use xlink:href="#m2c519add9e" x="446.586924" y="179.675492" style="fill: #1f77b4; stroke: #1f77b4"/>
     <use xlink:href="#m2c519add9e" x="461.189951" y="192.852937" style="fill: #1f77b4; stroke: #1f77b4"/>
     <use xlink:href="#m2c519add9e" x="475.792977" y="192.852937" style="fill: #1f77b4; stroke: #1f77b4"/>
     <use xlink:href="#m2c519add9e" x="490.396004" y="179.675492" style="fill: #1f77b4; stroke: #1f77b4"/>
     <use xlink:href="#m2c519add9e" x="504.99903" y="153.320602" style="fill: #1f77b4; stroke: #1f77b4"/>
     <use xlink:href="#m2c519add9e" x="519.602056" y="115.252428" style="fill: #1f77b4; stroke: #1f77b4"/>
     <use xlink:href="#m2c519add9e" x="534.205083" y="64.006809" style="fill: #1f77b4; stroke: #1f77b4"/>
     <use xlink:href="#m2c519add9e" x="548.808109" y="68.39929" style="fill: #1f77b4; stroke: #1f77b4"/>
     <use xlink:href="#m2c519add9e" x="563.411136" y="135.750676" style="fill: #1f77b4; stroke: #1f77b4"/>
     <use xlink:href="#m2c519add9e" x="578.014162" y="201.637901" style="fill: #1f77b4; stroke: #1f77b4"/>
     <use xlink:href="#m2c519add9e" x="592.617189" y="255.811841" style="fill: #1f77b4; stroke: #1f77b4"/>
     <use xlink:href="#m2c519add9e" x="607.220215" y="285.095052" style="fill: #1f77b4; stroke: #1f77b4"/>
     <use xlink:href="#m2c519add9e" x="621.823242" y="285.095052" style="fill: #1f77b4; stroke: #1f77b4"/>
     <use xlink:href="#m2c519add9e" x="636.426268" y="252.88352" style="fill: #1f77b4; stroke: #1f77b4"/>
     <use xlink:href="#m2c519add9e" x="651.029294" y="198.709579" style="fill: #1f77b4; stroke: #1f77b4"/>
     <use xlink:href="#m2c519add9e" x="665.632321" y="132.822355" style="fill: #1f77b4; stroke: #1f77b4"/>
     <use xlink:href="#m2c519add9e" x="680.235347" y="66.93513" style="fill: #1f77b4; stroke: #1f77b4"/>
     <use xlink:href="#m2c519add9e" x="694.838374" y="66.93513" style="fill: #1f77b4; stroke: #1f77b4"/>
     <use xlink:href="#m2c519add9e" x="709.4414" y="116.716589" style="fill: #1f77b4; stroke: #1f77b4"/>
     <use xlink:href="#m2c519add9e" x="724.044427" y="154.784763" style="fill: #1f77b4; stroke: #1f77b4"/>
     <use xlink:href="#m2c519add9e" x="738.647453" y="179.675492" style="fill: #1f77b4; stroke: #1f77b4"/>
     <use xlink:href="#m2c519add9e" x="753.250479" y="192.852937" style="fill: #1f77b4; stroke: #1f77b4"/>
     <use xlink:href="#m2c519add9e" x="767.853506" y="192.852937" style="fill: #1f77b4; stroke: #1f77b4"/>
     <use xlink:href="#m2c519add9e" x="782.456532" y="179.675492" style="fill: #1f77b4; stroke: #1f77b4"/>
     <use xlink:href="#m2c519add9e" x="797.059559" y="153.320602" style="fill: #1f77b4; stroke: #1f77b4"/>
     <use xlink:href="#m2c519add9e" x="811.662585" y="115.252428" style="fill: #1f77b4; stroke: #1f77b4"/>
    </g>
   </g>
   <g id="line2d_26">
    <path d="M 96.11429 232.385272 
L 110.717316 327.555708 
L 125.320343 394.907093 
L 139.923369 418.333662 
L 154.526396 387.58629 
L 169.129422 312.914102 
L 183.732448 217.743667 
L 198.335475 118.180749 
L 212.938501 42.044401 
L 227.541528 115.252428 
L 242.144554 170.890529 
L 256.747581 207.494543 
L 271.350607 229.456951 
L 285.953633 236.777754 
L 300.55666 227.99279 
L 315.159686 203.102061 
L 329.762713 162.105566 
L 344.365739 105.003304 
L 358.968766 42.044401 
L 373.571792 132.822355 
L 388.174819 232.385272 
L 402.777845 327.555708 
L 417.380871 394.907093 
L 431.983898 418.333662 
L 446.586924 387.58629 
L 461.189951 312.914102 
L 475.792977 217.743667 
L 490.396004 118.180749 
L 504.99903 42.044401 
L 519.602056 115.252428 
L 534.205083 170.890529 
L 548.808109 207.494543 
L 563.411136 229.456951 
L 578.014162 236.777754 
L 592.617189 227.99279 
L 607.220215 203.102061 
L 621.823242 162.105566 
L 636.426268 105.003304 
L 651.029294 42.044401 
L 665.632321 132.822355 
L 680.235347 232.385272 
L 694.838374 327.555708 
L 709.4414 394.907093 
L 724.044427 418.333662 
L 738.647453 387.58629 
L 753.250479 312.914102 
L 767.853506 217.743667 
L 782.456532 118.180749 
L 797.059559 42.044401 
L 811.662585 115.252428 
" clip-path="url(#p1db88a0258)" style="fill: none; stroke: #ff7f0e; stroke-width: 1.5; stroke-linecap: square"/>
    <defs>
     <path id="mb316d4e1f1" d="M 0 1.5 
C 0.397805 1.5 0.77937 1.341951 1.06066 1.06066 
C 1.341951 0.77937 1.5 0.397805 1.5 0 
C 1.5 -0.397805 1.341951 -0.77937 1.06066 -1.06066 
C 0.77937 -1.341951 0.397805 -1.5 0 -1.5 
C -0.397805 -1.5 -0.77937 -1.341951 -1.06066 -1.06066 
C -1.341951 -0.77937 -1.5 -0.397805 -1.5 0 
C -1.5 0.397805 -1.341951 0.77937 -1.06066 1.06066 
C -0.77937 1.341951 -0.397805 1.5 0 1.5 
z
" style="stroke: #ff7f0e"/>
    </defs>
    <g clip-path="url(#p1db88a0258)">
     <use xlink:href="#mb316d4e1f1" x="96.11429" y="232.385272" style="fill: #ff7f0e; stroke: #ff7f0e"/>
     <use xlink:href="#mb316d4e1f1" x="110.717316" y="327.555708" style="fill: #ff7f0e; stroke: #ff7f0e"/>
     <use xlink:href="#mb316d4e1f1" x="125.320343" y="394.907093" style="fill: #ff7f0e; stroke: #ff7f0e"/>
     <use xlink:href="#mb316d4e1f1" x="139.923369" y="418.333662" style="fill: #ff7f0e; stroke: #ff7f0e"/>
     <use xlink:href="#mb316d4e1f1" x="154.526396" y="387.58629" style="fill: #ff7f0e; stroke: #ff7f0e"/>
     <use xlink:href="#mb316d4e1f1" x="169.129422" y="312.914102" style="fill: #ff7f0e; stroke: #ff7f0e"/>
     <use xlink:href="#mb316d4e1f1" x="183.732448" y="217.743667" style="fill: #ff7f0e; stroke: #ff7f0e"/>
     <use xlink:href="#mb316d4e1f1" x="198.335475" y="118.180749" style="fill: #ff7f0e; stroke: #ff7f0e"/>
     <use xlink:href="#mb316d4e1f1" x="212.938501" y="42.044401" style="fill: #ff7f0e; stroke: #ff7f0e"/>
     <use xlink:href="#mb316d4e1f1" x="227.541528" y="115.252428" style="fill: #ff7f0e; stroke: #ff7f0e"/>
     <use xlink:href="#mb316d4e1f1" x="242.144554" y="170.890529" style="fill: #ff7f0e; stroke: #ff7f0e"/>
     <use xlink:href="#mb316d4e1f1" x="256.747581" y="207.494543" style="fill: #ff7f0e; stroke: #ff7f0e"/>
     <use xlink:href="#mb316d4e1f1" x="271.350607" y="229.456951" style="fill: #ff7f0e; stroke: #ff7f0e"/>
     <use xlink:href="#mb316d4e1f1" x="285.953633" y="236.777754" style="fill: #ff7f0e; stroke: #ff7f0e"/>
     <use xlink:href="#mb316d4e1f1" x="300.55666" y="227.99279" style="fill: #ff7f0e; stroke: #ff7f0e"/>
     <use xlink:href="#mb316d4e1f1" x="315.159686" y="203.102061" style="fill: #ff7f0e; stroke: #ff7f0e"/>
     <use xlink:href="#mb316d4e1f1" x="329.762713" y="162.105566" style="fill: #ff7f0e; stroke: #ff7f0e"/>
     <use xlink:href="#mb316d4e1f1" x="344.365739" y="105.003304" style="fill: #ff7f0e; stroke: #ff7f0e"/>
     <use xlink:href="#mb316d4e1f1" x="358.968766" y="42.044401" style="fill: #ff7f0e; stroke: #ff7f0e"/>
     <use xlink:href="#mb316d4e1f1" x="373.571792" y="132.822355" style="fill: #ff7f0e; stroke: #ff7f0e"/>
     <use xlink:href="#mb316d4e1f1" x="388.174819" y="232.385272" style="fill: #ff7f0e; stroke: #ff7f0e"/>
     <use xlink:href="#mb316d4e1f1" x="402.777845" y="327.555708" style="fill: #ff7f0e; stroke: #ff7f0e"/>
     <use xlink:href="#mb316d4e1f1" x="417.380871" y="394.907093" style="fill: #ff7f0e; stroke: #ff7f0e"/>
     <use xlink:href="#mb316d4e1f1" x="431.983898" y="418.333662" style="fill: #ff7f0e; stroke: #ff7f0e"/>
     <use xlink:href="#mb316d4e1f1" x="446.586924" y="387.58629" style="fill: #ff7f0e; stroke: #ff7f0e"/>
     <use xlink:href="#mb316d4e1f1" x="461.189951" y="312.914102" style="fill: #ff7f0e; stroke: #ff7f0e"/>
     <use xlink:href="#mb316d4e1f1" x="475.792977" y="217.743667" style="fill: #ff7f0e; stroke: #ff7f0e"/>
     <use xlink:href="#mb316d4e1f1" x="490.396004" y="118.180749" style="fill: #ff7f0e; stroke: #ff7f0e"/>
     <use xlink:href="#mb316d4e1f1" x="504.99903" y="42.044401" style="fill: #ff7f0e; stroke: #ff7f0e"/>
     <use xlink:href="#mb316d4e1f1" x="519.602056" y="115.252428" style="fill: #ff7f0e; stroke: #ff7f0e"/>
     <use xlink:href="#mb316d4e1f1" x="534.205083" y="170.890529" style="fill: #ff7f0e; stroke: #ff7f0e"/>
     <use xlink:href="#mb316d4e1f1" x="548.808109" y="207.494543" style="fill: #ff7f0e; stroke: #ff7f0e"/>
     <use xlink:href="#mb316d4e1f1" x="563.411136" y="229.456951" style="fill: #ff7f0e; stroke: #ff7f0e"/>
     <use xlink:href="#mb316d4e1f1" x="578.014162" y="236.777754" style="fill: #ff7f0e; stroke: #ff7f0e"/>
     <use xlink:href="#mb316d4e1f1" x="592.617189" y="227.99279" style="fill: #ff7f0e; stroke: #ff7f0e"/>
     <use xlink:href="#mb316d4e1f1" x="607.220215" y="203.102061" style="fill: #ff7f0e; stroke: #ff7f0e"/>
     <use xlink:href="#mb316d4e1f1" x="621.823242" y="162.105566" style="fill: #ff7f0e; stroke: #ff7f0e"/>
     <use xlink:href="#mb316d4e1f1" x="636.426268" y="105.003304" style="fill: #ff7f0e; stroke: #ff7f0e"/>
     <use xlink:href="#mb316d4e1f1" x="651.029294" y="42.044401" style="fill: #ff7f0e; stroke: #ff7f0e"/>
     <use xlink:href="#mb316d4e1f1" x="665.632321" y="132.822355" style="fill: #ff7f0e; stroke: #ff7f0e"/>
     <use xlink:href="#mb316d4e1f1" x="680.235347" y="232.385272" style="fill: #ff7f0e; stroke: #ff7f0e"/>
     <use xlink:href="#mb316d4e1f1" x="694.838374" y="327.555708" style="fill: #ff7f0e; stroke: #ff7f0e"/>
     <use xlink:href="#mb316d4e1f1" x="709.4414" y="394.907093" style="fill: #ff7f0e; stroke: #ff7f0e"/>
     <use xlink:href="#mb316d4e1f1" x="724.044427" y="418.333662" style="fill: #ff7f0e; stroke: #ff7f0e"/>
     <use xlink:href="#mb316d4e1f1" x="738.647453" y="387.58629" style="fill: #ff7f0e; stroke: #ff7f0e"/>
     <use xlink:href="#mb316d4e1f1" x="753.250479" y="312.914102" style="fill: #ff7f0e; stroke: #ff7f0e"/>
     <use xlink:href="#mb316d4e1f1" x="767.853506" y="217.743667" style="fill: #ff7f0e; stroke: #ff7f0e"/>
     <use xlink:href="#mb316d4e1f1" x="782.456532" y="118.180749" style="fill: #ff7f0e; stroke: #ff7f0e"/>
     <use xlink:href="#mb316d4e1f1" x="797.059559" y="42.044401" style="fill: #ff7f0e; stroke: #ff7f0e"/>
     <use xlink:href="#mb316d4e1f1" x="811.662585" y="115.252428" style="fill: #ff7f0e; stroke: #ff7f0e"/>
    </g>
   </g>
   <g id="patch_3">
    <path d="M 60.336875 437.148125 
L 60.336875 23.229938 
" style="fill: none; stroke: #000000; stroke-width: 0.8; stroke-linejoin: miter; stroke-linecap: square"/>
   </g>
   <g id="patch_4">
    <path d="M 847.44 437.148125 
L 847.44 23.229938 
" style="fill: none; stroke: #000000; stroke-width: 0.8; stroke-linejoin: miter; stroke-linecap: square"/>
   </g>
   <g id="patch_5">
    <path d="M 60.336875 437.148125 
L 847.44 437.148125 
" style="fill: none; stroke: #000000; stroke-width: 0.8; stroke-linejoin: miter; stroke-linecap: square"/>
   </g>
   <g id="patch_6">
    <path d="M 60.336875 23.229937 
L 847.44 23.229937 
" style="fill: none; stroke: #000000; stroke-width: 0.8; stroke-linejoin: miter; stroke-linecap: square"/>
   </g>
   <g id="text_15">
    <!-- lower_limb.chart.knee_angle_timeseries -->
    <g transform="translate(321.412 17.229937) scale(0.132 -0.132)">
     <defs>
      <path id="DejaVuSans-77" d="M 269 3500 
L 844 3500 
L 1563 769 
L 2278 3500 
L 2956 3500 
L 3675 769 
L 4391 3500 
L 4966 3500 
L 4050 0 
L 3372 0 
L 2619 2869 
L 1863 0 
L 1184 0 
L 269 3500 
z
" transform="scale(0.015625)"/>
      <path id="DejaVuSans-5f" d="M 3263 -1063 
L 3263 -1509 
L -63 -1509 
L -63 -1063 
L 3263 -1063 
z
" transform="scale(0.015625)"/>
      <path id="DejaVuSans-62" d="M 3116 1747 
Q 3116 2381 2855 2742 
Q 2594 3103 2138 3103 
Q 1681 3103 1420 2742 
Q 1159 2381 1159 1747 
Q 1159 1113 1420 752 
Q 1681 391 2138 391 
Q 2594 391 2855 752 
Q 3116 1113 3116 1747 
z
M 1159 2969 
Q 1341 3281 1617 3432 
Q 1894 3584 2278 3584 
Q 2916 3584 3314 3078 
Q 3713 2572 3713 1747 
Q 3713 922 3314 415 
Q 2916 -91 2278 -91 
Q 1894 -91 1617 61 
Q 1341 213 1159 525 
L 1159 0 
L 581 0 
L 581 4863 
L 1159 4863 
L 1159 2969 
z
" transform="scale(0.015625)"/>
      <path id="DejaVuSans-68" d="M 3513 2113 
L 3513 0 
L 2938 0 
L 2938 2094 
Q 2938 2591 2744 2837 
Q 2550 3084 2163 3084 
Q 1697 3084 1428 2787 
Q 1159 2491 1159 1978 
L 1159 0 
L 581 0 
L 581 4863 
L 1159 4863 
L 1159 2956 
Q 1366 3272 1645 3428 
Q 1925 3584 2291 3584 
Q 2894 3584 3203 3211 
Q 3513 2838 3513 2113 
z
" transform="scale(0.015625)"/>
      <path id="DejaVuSans-74" d="M 1172 4494 
L 1172 3500 
L 2356 3500 
L 2356 3053 
L 1172 3053 
L 1172 1153 
Q 1172 725 1289 603 
Q 1406 481 1766 481 
L 2356 481 
L 2356 0 
L 1766 0 
Q 1100 0 847 248 
Q 594 497 594 1153 
L 594 3053 
L 172 3053 
L 172 3500 
L 594 3500 
L 594 4494 
L 1172 4494 
z
" transform="scale(0.015625)"/>
      <path id="DejaVuSans-6b" d="M 581 4863 
L 1159 4863 
L 1159 1991 
L 2875 3500 
L 3609 3500 
L 1753 1863 
L 3688 0 
L 2938 0 
L 1159 1709 
L 1159 0 
L 581 0 
L 581 4863 
z
" transform="scale(0.015625)"/>
     </defs>
     <use xlink:href="#DejaVuSans-6c"/>
     <use xlink:href="#DejaVuSans-6f" transform="translate(27.783203 0)"/>
     <use xlink:href="#DejaVuSans-77" transform="translate(88.964844 0)"/>
     <use xlink:href="#DejaVuSans-65" transform="translate(170.751953 0)"/>
     <use xlink:href="#DejaVuSans-72" transform="translate(232.275391 0)"/>
     <use xlink:href="#DejaVuSans-5f" transform="translate(273.388672 0)"/>
     <use xlink:href="#DejaVuSans-6c" transform="translate(323.388672 0)"/>
     <use xlink:href="#DejaVuSans-69" transform="translate(351.171875 0)"/>
     <use xlink:href="#DejaVuSans-6d" transform="translate(378.955078 0)"/>
     <use xlink:href="#DejaVuSans-62" transform="translate(476.367188 0)"/>
     <use xlink:href="#DejaVuSans-2e" transform="translate(539.84375 0)"/>
     <use xlink:href="#DejaVuSans-63" transform="translate(571.630859 0)"/>
     <use xlink:href="#DejaVuSans-68" transform="translate(626.611328 0)"/>
     <use xlink:href="#DejaVuSans-61" transform="translate(689.990234 0)"/>
     <use xlink:href="#DejaVuSans-72" transform="translate(751.269531 0)"/>
     <use xlink:href="#DejaVuSans-74" transform="translate(792.382812 0)"/>
     <use xlink:href="#DejaVuSans-2e" transform="translate(831.591797 0)"/>
     <use xlink:href="#DejaVuSans-6b" transform="translate(863.378906 0)"/>
     <use xlink:href="#DejaVuSans-6e" transform="translate(921.289062 0)"/>
     <use xlink:href="#DejaVuSans-65" transform="translate(984.667969 0)"/>
     <use xlink:href="#DejaVuSans-65" transform="translate(1046.191406 0)"/>
     <use xlink:href="#DejaVuSans-5f" transform="translate(1107.714844 0)"/>
     <use xlink:href="#DejaVuSans-61" transform="translate(1157.714844 0)"/>
     <use xlink:href="#DejaVuSans-6e" transform="translate(1218.994141 0)"/>
     <use xlink:href="#DejaVuSans-67" transform="translate(1282.373047 0)"/>
     <use xlink:href="#DejaVuSans-6c" transform="translate(1345.849609 0)"/>
     <use xlink:href="#DejaVuSans-65" transform="translate(1373.632812 0)"/>
     <use xlink:href="#DejaVuSans-5f" transform="translate(1435.15625 0)"/>
     <use xlink:href="#DejaVuSans-74" transform="translate(1485.15625 0)"/>
     <use xlink:href="#DejaVuSans-69" transform="translate(1524.365234 0)"/>
     <use xlink:href="#DejaVuSans-6d" transform="translate(1552.148438 0)"/>
     <use xlink:href="#DejaVuSans-65" transform="translate(1649.560547 0)"/>
     <use xlink:href="#DejaVuSans-73" transform="translate(1711.083984 0)"/>
     <use xlink:href="#DejaVuSans-65" transform="translate(1763.183594 0)"/>
     <use xlink:href="#DejaVuSans-72" transform="translate(1824.707031 0)"/>
     <use xlink:href="#DejaVuSans-69" transform="translate(1865.820312 0)"/>
     <use xlink:href="#DejaVuSans-65" transform="translate(1893.603516 0)"/>
     <use xlink:href="#DejaVuSans-73" transform="translate(1955.126953 0)"/>
    </g>
   </g>
   <g id="legend_1">
    <g id="patch_7">
     <path d="M 65.936875 53.559937 
L 179.156875 53.559937 
Q 180.756875 53.559937 180.756875 51.959937 
L 180.756875 28.829937 
Q 180.756875 27.229937 179.156875 27.229937 
L 65.936875 27.229937 
Q 64.336875 27.229937 64.336875 28.829937 
L 64.336875 51.959937 
Q 64.336875 53.559937 65.936875 53.559937 
z
" style="fill: #ffffff; opacity: 0.8; stroke: #cccccc; stroke-linejoin: miter"/>
    </g>
    <g id="line2d_27">
     <path d="M 67.536875 33.708687 
L 75.536875 33.708687 
L 83.536875 33.708687 
" style="fill: none; stroke: #1f77b4; stroke-width: 1.5; stroke-linecap: square"/>
     <g>
      <use xlink:href="#m2c519add9e" x="75.536875" y="33.708687" style="fill: #1f77b4; stroke: #1f77b4"/>
     </g>
    </g>
    <g id="text_16">
     <!-- left_knee_angle_deg -->
     <g transform="translate(89.936875 36.508687) scale(0.08 -0.08)">
      <use xlink:href="#DejaVuSans-6c"/>
      <use xlink:href="#DejaVuSans-65" transform="translate(27.783203 0)"/>
      <use xlink:href="#DejaVuSans-66" transform="translate(89.306641 0)"/>
      <use xlink:href="#DejaVuSans-74" transform="translate(122.761719 0)"/>
      <use xlink:href="#DejaVuSans-5f" transform="translate(161.970703 0)"/>
      <use xlink:href="#DejaVuSans-6b" transform="translate(211.970703 0)"/>
      <use xlink:href="#DejaVuSans-6e" transform="translate(269.880859 0)"/>
      <use xlink:href="#DejaVuSans-65" transform="translate(333.259766 0)"/>
      <use xlink:href="#DejaVuSans-65" transform="translate(394.783203 0)"/>
      <use xlink:href="#DejaVuSans-5f" transform="translate(456.306641 0)"/>
      <use xlink:href="#DejaVuSans-61" transform="translate(506.306641 0)"/>
      <use xlink:href="#DejaVuSans-6e" transform="translate(567.585938 0)"/>
      <use xlink:href="#DejaVuSans-67" transform="translate(630.964844 0)"/>
      <use xlink:href="#DejaVuSans-6c" transform="translate(694.441406 0)"/>
      <use xlink:href="#DejaVuSans-65" transform="translate(722.224609 0)"/>
      <use xlink:href="#DejaVuSans-5f" transform="translate(783.748047 0)"/>
      <use xlink:href="#DejaVuSans-64" transform="translate(833.748047 0)"/>
      <use xlink:href="#DejaVuSans-65" transform="translate(897.224609 0)"/>
      <use xlink:href="#DejaVuSans-67" transform="translate(958.748047 0)"/>
     </g>
    </g>
    <g id="line2d_28">
     <path d="M 67.536875 45.673687 
L 75.536875 45.673687 
L 83.536875 45.673687 
" style="fill: none; stroke: #ff7f0e; stroke-width: 1.5; stroke-linecap: square"/>
     <g>
      <use xlink:href="#mb316d4e1f1" x="75.536875" y="45.673687" style="fill: #ff7f0e; stroke: #ff7f0e"/>
     </g>
    </g>
    <g id="text_17">
     <!-- right_knee_angle_deg -->
     <g transform="translate(89.936875 48.473687) scale(0.08 -0.08)">
      <use xlink:href="#DejaVuSans-72"/>
      <use xlink:href="#DejaVuSans-69" transform="translate(41.113281 0)"/>
      <use xlink:href="#DejaVuSans-67" transform="translate(68.896484 0)"/>
      <use xlink:href="#DejaVuSans-68" transform="translate(132.373047 0)"/>
      <use xlink:href="#DejaVuSans-74" transform="translate(195.751953 0)"/>
      <use xlink:href="#DejaVuSans-5f" transform="translate(234.960938 0)"/>
      <use xlink:href="#DejaVuSans-6b" transform="translate(284.960938 0)"/>
      <use xlink:href="#DejaVuSans-6e" transform="translate(342.871094 0)"/>
      <use xlink:href="#DejaVuSans-65" transform="translate(406.25 0)"/>
      <use xlink:href="#DejaVuSans-65" transform="translate(467.773438 0)"/>
      <use xlink:href="#DejaVuSans-5f" transform="translate(529.296875 0)"/>
      <use xlink:href="#DejaVuSans-61" transform="translate(579.296875 0)"/>
      <use xlink:href="#DejaVuSans-6e" transform="translate(640.576172 0)"/>
      <use xlink:href="#DejaVuSans-67" transform="translate(703.955078 0)"/>
      <use xlink:href="#DejaVuSans-6c" transform="translate(767.431641 0)"/>
      <use xlink:href="#DejaVuSans-65" transform="translate(795.214844 0)"/>
      <use xlink:href="#DejaVuSans-5f" transform="translate(856.738281 0)"/>
      <use xlink:href="#DejaVuSans-64" transform="translate(906.738281 0)"/>
      <use xlink:href="#DejaVuSans-65" transform="translate(970.214844 0)"/>
      <use xlink:href="#DejaVuSans-67" transform="translate(1031.738281 0)"/>
     </g>
    </g>
   </g>
  </g>
 </g>
 <defs>
  <clipPath id="p1db88a0258">
   <rect x="60.336875" y="23.229937" width="787.103125" height="413.918187"/>
  </clipPath>
 </defs>
</svg>
