<?xml version="1.0" encoding="utf-8" standalone="no"?>
<!DOCTYPE svg PUBLIC "-//W3C//DTD SVG 1.1//EN"
  "http://www.w3.org/Graphics/SVG/1.1/DTD/svg11.dtd">
<svg xmlns:xlink="http://www.w3.org/1999/xlink" width="635.371452pt" height="614.30702pt" viewBox="0 0 635.371452 614.30702" xmlns="http://www.w3.org/2000/svg" version="1.1">
 <metadata>
  <rdf:RDF xmlns:dc="http://purl.org/dc/elements/1.1/" xmlns:cc="http://creativecommons.org/ns#" xmlns:rdf="http://www.w3.org/1999/02/22-rdf-syntax-ns#">
   <cc:Work>
    <dc:type rdf:resource="http://purl.org/dc/dcmitype/StillImage"/>
    <dc:date>2026-07-18T19:21:44.243376</dc:date>
    <dc:format>image/svg+xml</dc:format>
    <dc:creator>
     <cc:Agent>
      <dc:title>Matplotlib v3.10.9, https://matplotlib.org/</dc:title>
     </cc:Agent>
    </dc:creator>
   </cc:Work>
  </rdf:RDF>
 </metadata>
 <defs>
  <style type="text/css">*{stroke-linejoin: round; stroke-linecap: butt}</style>
 </defs>
 <g id="figure_1">
  <g id="patch_1">
   <path d="M 0 614.30702 
L 635.371452 614.30702 
L 635.371452 0 
L 0 0 
z
" style="fill: #ffffff"/>
  </g>
  <g id="axes_1">
   <g id="patch_2">
    <path d="M 583.702937 315.168479 
C 583.702937 277.315643 576.246753 239.830878 561.7611 204.859417 
C 547.275447 169.887957 526.042033 138.109908 499.276036 111.343911 
C 472.510039 84.577914 440.73199 63.3445 405.76053 48.858847 
C 370.789069 34.373194 333.304304 26.91701 295.451468 26.91701 
C 257.598632 26.91701 220.113867 34.373194 185.142407 48.858847 
C 150.170947 63.3445 118.392897 84.577914 91.6269 111.343911 
C 64.860903 138.109908 43.62749 169.887957 29.141837 204.859417 
C 14.656183 239.830878 7.2 277.315643 7.2 315.168479 
C 7.2 353.021315 14.656183 390.506079 29.141837 425.47754 
C 43.62749 460.449 64.860903 492.227049 91.6269 518.993046 
C 118.392897 545.759044 150.170947 566.992457 185.142407 581.47811 
C 220.113867 595.963764 257.598632 603.419947 295.451468 603.419947 
C 333.304304 603.419947 370.789069 595.963764 405.76053 581.47811 
C 440.73199 566.992457 472.510039 545.759044 499.276036 518.993046 
C 526.042033 492.227049 547.275447 460.449 561.7611 425.47754 
C 576.246753 390.506079 583.702937 353.021315 583.702937 315.168479 
M 295.451468 315.168479 
C 295.451468 315.168479 295.451468 315.168479 295.451468 315.168479 
C 295.451468 315.168479 295.451468 315.168479 295.451468 315.168479 
C 295.451468 315.168479 295.451468 315.168479 295.451468 315.168479 
C 295.451468 315.168479 295.451468 315.168479 295.451468 315.168479 
C 295.451468 315.168479 295.451468 315.168479 295.451468 315.168479 
C 295.451468 315.168479 295.451468 315.168479 295.451468 315.168479 
C 295.451468 315.168479 295.451468 315.168479 295.451468 315.168479 
C 295.451468 315.168479 295.451468 315.168479 295.451468 315.168479 
C 295.451468 315.168479 295.451468 315.168479 295.451468 315.168479 
C 295.451468 315.168479 295.451468 315.168479 295.451468 315.168479 
C 295.451468 315.168479 295.451468 315.168479 295.451468 315.168479 
C 295.451468 315.168479 295.451468 315.168479 295.451468 315.168479 
C 295.451468 315.168479 295.451468 315.168479 295.451468 315.168479 
C 295.451468 315.168479 295.451468 315.168479 295.451468 315.168479 
C 295.451468 315.168479 295.451468 315.168479 295.451468 315.168479 
C 295.451468 315.168479 295.451468 315.168479 295.451468 315.168479 
z
" style="fill: #ffffff"/>
   </g>
   <g id="matplotlib.axis_1">
    <g id="xtick_1">
     <g id="line2d_1">
      <path d="M 295.451468 315.168479 
L 583.702937 315.168479 
" clip-path="url(#pad92933f10)" style="fill: none; stroke: #b0b0b0; stroke-opacity: 0.3; stroke-width: 0.8; stroke-linecap: square"/>
     </g>
     <g id="text_1">
      <!-- body_posture -->
      <g transform="translate(567.234421 317.52676) scale(0.09 -0.09)">
       <defs>
        <path id="DejaVuSans-62" d="M 3116 1747 
Q 3116 2381 2855 2742 
Q 2594 3103 2138 3103 
Q 1681 3103 1420 2742 
Q 1159 2381 1159 1747 
Q 1159 1113 1420 752 
Q 1681 391 2138 391 
Q 2594 391 2855 752 
Q 3116 1113 3116 1747 
z
M 1159 2969 
Q 1341 3281 1617 3432 
Q 1894 3584 2278 3584 
Q 2916 3584 3314 3078 
Q 3713 2572 3713 1747 
Q 3713 922 3314 415 
Q 2916 -91 2278 -91 
Q 1894 -91 1617 61 
Q 1341 213 1159 525 
L 1159 0 
L 581 0 
L 581 4863 
L 1159 4863 
L 1159 2969 
z
" transform="scale(0.015625)"/>
        <path id="DejaVuSans-6f" d="M 1959 3097 
Q 1497 3097 1228 2736 
Q 959 2375 959 1747 
Q 959 1119 1226 758 
Q 1494 397 1959 397 
Q 2419 397 2687 759 
Q 2956 1122 2956 1747 
Q 2956 2369 2687 2733 
Q 2419 3097 1959 3097 
z
M 1959 3584 
Q 2709 3584 3137 3096 
Q 3566 2609 3566 1747 
Q 3566 888 3137 398 
Q 2709 -91 1959 -91 
Q 1206 -91 779 398 
Q 353 888 353 1747 
Q 353 2609 779 3096 
Q 1206 3584 1959 3584 
z
" transform="scale(0.015625)"/>
        <path id="DejaVuSans-64" d="M 2906 2969 
L 2906 4863 
L 3481 4863 
L 3481 0 
L 2906 0 
L 2906 525 
Q 2725 213 2448 61 
Q 2172 -91 1784 -91 
Q 1150 -91 751 415 
Q 353 922 353 1747 
Q 353 2572 751 3078 
Q 1150 3584 1784 3584 
Q 2172 3584 2448 3432 
Q 2725 3281 2906 2969 
z
M 947 1747 
Q 947 1113 1208 752 
Q 1469 391 1925 391 
Q 2381 391 2643 752 
Q 2906 1113 2906 1747 
Q 2906 2381 2643 2742 
Q 2381 3103 1925 3103 
Q 1469 3103 1208 2742 
Q 947 2381 947 1747 
z
" transform="scale(0.015625)"/>
        <path id="DejaVuSans-79" d="M 2059 -325 
Q 1816 -950 1584 -1140 
Q 1353 -1331 966 -1331 
L 506 -1331 
L 506 -850 
L 844 -850 
Q 1081 -850 1212 -737 
Q 1344 -625 1503 -206 
L 1606 56 
L 191 3500 
L 800 3500 
L 1894 763 
L 2988 3500 
L 3597 3500 
L 2059 -325 
z
" transform="scale(0.015625)"/>
        <path id="DejaVuSans-5f" d="M 3263 -1063 
L 3263 -1509 
L -63 -1509 
L -63 -1063 
L 3263 -1063 
z
" transform="scale(0.015625)"/>
        <path id="DejaVuSans-70" d="M 1159 525 
L 1159 -1331 
L 581 -1331 
L 581 3500 
L 1159 3500 
L 1159 2969 
Q 1341 3281 1617 3432 
Q 1894 3584 2278 3584 
Q 2916 3584 3314 3078 
Q 3713 2572 3713 1747 
Q 3713 922 3314 415 
Q 2916 -91 2278 -91 
Q 1894 -91 1617 61 
Q 1341 213 1159 525 
z
M 3116 1747 
Q 3116 2381 2855 2742 
Q 2594 3103 2138 3103 
Q 1681 3103 1420 2742 
Q 1159 2381 1159 1747 
Q 1159 1113 1420 752 
Q 1681 391 2138 391 
Q 2594 391 2855 752 
Q 3116 1113 3116 1747 
z
" transform="scale(0.015625)"/>
        <path id="DejaVuSans-73" d="M 2834 3397 
L 2834 2853 
Q 2591 2978 2328 3040 
Q 2066 3103 1784 3103 
Q 1356 3103 1142 2972 
Q 928 2841 928 2578 
Q 928 2378 1081 2264 
Q 1234 2150 1697 2047 
L 1894 2003 
Q 2506 1872 2764 1633 
Q 3022 1394 3022 966 
Q 3022 478 2636 193 
Q 2250 -91 1575 -91 
Q 1294 -91 989 -36 
Q 684 19 347 128 
L 347 722 
Q 666 556 975 473 
Q 1284 391 1588 391 
Q 1994 391 2212 530 
Q 2431 669 2431 922 
Q 2431 1156 2273 1281 
Q 2116 1406 1581 1522 
L 1381 1569 
Q 847 1681 609 1914 
Q 372 2147 372 2553 
Q 372 3047 722 3315 
Q 1072 3584 1716 3584 
Q 2034 3584 2315 3537 
Q 2597 3491 2834 3397 
z
" transform="scale(0.015625)"/>
        <path id="DejaVuSans-74" d="M 1172 4494 
L 1172 3500 
L 2356 3500 
L 2356 3053 
L 1172 3053 
L 1172 1153 
Q 1172 725 1289 603 
Q 1406 481 1766 481 
L 2356 481 
L 2356 0 
L 1766 0 
Q 1100 0 847 248 
Q 594 497 594 1153 
L 594 3053 
L 172 3053 
L 172 3500 
L 594 3500 
L 594 4494 
L 1172 4494 
z
" transform="scale(0.015625)"/>
        <path id="DejaVuSans-75" d="M 544 1381 
L 544 3500 
L 1119 3500 
L 1119 1403 
Q 1119 906 1312 657 
Q 1506 409 1894 409 
Q 2359 409 2629 706 
Q 2900 1003 2900 1516 
L 2900 3500 
L 3475 3500 
L 3475 0 
L 2900 0 
L 2900 538 
Q 2691 219 2414 64 
Q 2138 -91 1772 -91 
Q 1169 -91 856 284 
Q 544 659 544 1381 
z
M 1991 3584 
L 1991 3584 
z
" transform="scale(0.015625)"/>
        <path id="DejaVuSans-72" d="M 2631 2963 
Q 2534 3019 2420 3045 
Q 2306 3072 2169 3072 
Q 1681 3072 1420 2755 
Q 1159 2438 1159 1844 
L 1159 0 
L 581 0 
L 581 3500 
L 1159 3500 
L 1159 2956 
Q 1341 3275 1631 3429 
Q 1922 3584 2338 3584 
Q 2397 3584 2469 3576 
Q 2541 3569 2628 3553 
L 2631 2963 
z
" transform="scale(0.015625)"/>
        <path id="DejaVuSans-65" d="M 3597 1894 
L 3597 1613 
L 953 1613 
Q 991 1019 1311 708 
Q 1631 397 2203 397 
Q 2534 397 2845 478 
Q 3156 559 3463 722 
L 3463 178 
Q 3153 47 2828 -22 
Q 2503 -91 2169 -91 
Q 1331 -91 842 396 
Q 353 884 353 1716 
Q 353 2575 817 3079 
Q 1281 3584 2069 3584 
Q 2775 3584 3186 3129 
Q 3597 2675 3597 1894 
z
M 3022 2063 
Q 3016 2534 2758 2815 
Q 2500 3097 2075 3097 
Q 1594 3097 1305 2825 
Q 1016 2553 972 2059 
L 3022 2063 
z
" transform="scale(0.015625)"/>
       </defs>
       <use xlink:href="#DejaVuSans-62"/>
       <use xlink:href="#DejaVuSans-6f" transform="translate(63.476562 0)"/>
       <use xlink:href="#DejaVuSans-64" transform="translate(124.658203 0)"/>
       <use xlink:href="#DejaVuSans-79" transform="translate(188.134766 0)"/>
       <use xlink:href="#DejaVuSans-5f" transform="translate(247.314453 0)"/>
       <use xlink:href="#DejaVuSans-70" transform="translate(297.314453 0)"/>
       <use xlink:href="#DejaVuSans-6f" transform="translate(360.791016 0)"/>
       <use xlink:href="#DejaVuSans-73" transform="translate(421.972656 0)"/>
       <use xlink:href="#DejaVuSans-74" transform="translate(474.072266 0)"/>
       <use xlink:href="#DejaVuSans-75" transform="translate(513.28125 0)"/>
       <use xlink:href="#DejaVuSans-72" transform="translate(576.660156 0)"/>
       <use xlink:href="#DejaVuSans-65" transform="translate(615.523438 0)"/>
      </g>
     </g>
    </g>
    <g id="xtick_2">
     <g id="line2d_2">
      <path d="M 295.451468 315.168479 
L 384.526071 41.025041 
" clip-path="url(#pad92933f10)" style="fill: none; stroke: #b0b0b0; stroke-opacity: 0.3; stroke-width: 0.8; stroke-linecap: square"/>
     </g>
     <g id="text_2">
      <!-- upper_limb -->
      <g transform="translate(363.677621 30.068531) scale(0.09 -0.09)">
       <defs>
        <path id="DejaVuSans-6c" d="M 603 4863 
L 1178 4863 
L 1178 0 
L 603 0 
L 603 4863 
z
" transform="scale(0.015625)"/>
        <path id="DejaVuSans-69" d="M 603 3500 
L 1178 3500 
L 1178 0 
L 603 0 
L 603 3500 
z
M 603 4863 
L 1178 4863 
L 1178 4134 
L 603 4134 
L 603 4863 
z
" transform="scale(0.015625)"/>
        <path id="DejaVuSans-6d" d="M 3328 2828 
Q 3544 3216 3844 3400 
Q 4144 3584 4550 3584 
Q 5097 3584 5394 3201 
Q 5691 2819 5691 2113 
L 5691 0 
L 5113 0 
L 5113 2094 
Q 5113 2597 4934 2840 
Q 4756 3084 4391 3084 
Q 3944 3084 3684 2787 
Q 3425 2491 3425 1978 
L 3425 0 
L 2847 0 
L 2847 2094 
Q 2847 2600 2669 2842 
Q 2491 3084 2119 3084 
Q 1678 3084 1418 2786 
Q 1159 2488 1159 1978 
L 1159 0 
L 581 0 
L 581 3500 
L 1159 3500 
L 1159 2956 
Q 1356 3278 1631 3431 
Q 1906 3584 2284 3584 
Q 2666 3584 2933 3390 
Q 3200 3197 3328 2828 
z
" transform="scale(0.015625)"/>
       </defs>
       <use xlink:href="#DejaVuSans-75"/>
       <use xlink:href="#DejaVuSans-70" transform="translate(63.378906 0)"/>
       <use xlink:href="#DejaVuSans-70" transform="translate(126.855469 0)"/>
       <use xlink:href="#DejaVuSans-65" transform="translate(190.332031 0)"/>
       <use xlink:href="#DejaVuSans-72" transform="translate(251.855469 0)"/>
       <use xlink:href="#DejaVuSans-5f" transform="translate(292.96875 0)"/>
       <use xlink:href="#DejaVuSans-6c" transform="translate(342.96875 0)"/>
       <use xlink:href="#DejaVuSans-69" transform="translate(370.751953 0)"/>
       <use xlink:href="#DejaVuSans-6d" transform="translate(398.535156 0)"/>
       <use xlink:href="#DejaVuSans-62" transform="translate(495.947266 0)"/>
      </g>
     </g>
    </g>
    <g id="xtick_3">
     <g id="line2d_3">
      <path d="M 295.451468 315.168479 
L 62.251132 145.738516 
" clip-path="url(#pad92933f10)" style="fill: none; stroke: #b0b0b0; stroke-opacity: 0.3; stroke-width: 0.8; stroke-linecap: square"/>
     </g>
     <g id="text_3">
      <!-- lower_limb_rhythm -->
      <g transform="translate(8.096144 139.867804) scale(0.09 -0.09)">
       <defs>
        <path id="DejaVuSans-77" d="M 269 3500 
L 844 3500 
L 1563 769 
L 2278 3500 
L 2956 3500 
L 3675 769 
L 4391 3500 
L 4966 3500 
L 4050 0 
L 3372 0 
L 2619 2869 
L 1863 0 
L 1184 0 
L 269 3500 
z
" transform="scale(0.015625)"/>
        <path id="DejaVuSans-68" d="M 3513 2113 
L 3513 0 
L 2938 0 
L 2938 2094 
Q 2938 2591 2744 2837 
Q 2550 3084 2163 3084 
Q 1697 3084 1428 2787 
Q 1159 2491 1159 1978 
L 1159 0 
L 581 0 
L 581 4863 
L 1159 4863 
L 1159 2956 
Q 1366 3272 1645 3428 
Q 1925 3584 2291 3584 
Q 2894 3584 3203 3211 
Q 3513 2838 3513 2113 
z
" transform="scale(0.015625)"/>
       </defs>
       <use xlink:href="#DejaVuSans-6c"/>
       <use xlink:href="#DejaVuSans-6f" transform="translate(27.783203 0)"/>
       <use xlink:href="#DejaVuSans-77" transform="translate(88.964844 0)"/>
       <use xlink:href="#DejaVuSans-65" transform="translate(170.751953 0)"/>
       <use xlink:href="#DejaVuSans-72" transform="translate(232.275391 0)"/>
       <use xlink:href="#DejaVuSans-5f" transform="translate(273.388672 0)"/>
       <use xlink:href="#DejaVuSans-6c" transform="translate(323.388672 0)"/>
       <use xlink:href="#DejaVuSans-69" transform="translate(351.171875 0)"/>
       <use xlink:href="#DejaVuSans-6d" transform="translate(378.955078 0)"/>
       <use xlink:href="#DejaVuSans-62" transform="translate(476.367188 0)"/>
       <use xlink:href="#DejaVuSans-5f" transform="translate(539.84375 0)"/>
       <use xlink:href="#DejaVuSans-72" transform="translate(589.84375 0)"/>
       <use xlink:href="#DejaVuSans-68" transform="translate(629.207031 0)"/>
       <use xlink:href="#DejaVuSans-79" transform="translate(692.585938 0)"/>
       <use xlink:href="#DejaVuSans-74" transform="translate(751.765625 0)"/>
       <use xlink:href="#DejaVuSans-68" transform="translate(790.974609 0)"/>
       <use xlink:href="#DejaVuSans-6d" transform="translate(854.353516 0)"/>
      </g>
     </g>
    </g>
    <g id="xtick_4">
     <g id="line2d_4">
      <path d="M 295.451468 315.168479 
L 62.251132 484.598441 
" clip-path="url(#pad92933f10)" style="fill: none; stroke: #b0b0b0; stroke-opacity: 0.3; stroke-width: 0.8; stroke-linecap: square"/>
     </g>
     <g id="text_4">
      <!-- head_control -->
      <g transform="translate(21.843644 495.185715) scale(0.09 -0.09)">
       <defs>
        <path id="DejaVuSans-61" d="M 2194 1759 
Q 1497 1759 1228 1600 
Q 959 1441 959 1056 
Q 959 750 1161 570 
Q 1363 391 1709 391 
Q 2188 391 2477 730 
Q 2766 1069 2766 1631 
L 2766 1759 
L 2194 1759 
z
M 3341 1997 
L 3341 0 
L 2766 0 
L 2766 531 
Q 2569 213 2275 61 
Q 1981 -91 1556 -91 
Q 1019 -91 701 211 
Q 384 513 384 1019 
Q 384 1609 779 1909 
Q 1175 2209 1959 2209 
L 2766 2209 
L 2766 2266 
Q 2766 2663 2505 2880 
Q 2244 3097 1772 3097 
Q 1472 3097 1187 3025 
Q 903 2953 641 2809 
L 641 3341 
Q 956 3463 1253 3523 
Q 1550 3584 1831 3584 
Q 2591 3584 2966 3190 
Q 3341 2797 3341 1997 
z
" transform="scale(0.015625)"/>
        <path id="DejaVuSans-63" d="M 3122 3366 
L 3122 2828 
Q 2878 2963 2633 3030 
Q 2388 3097 2138 3097 
Q 1578 3097 1268 2742 
Q 959 2388 959 1747 
Q 959 1106 1268 751 
Q 1578 397 2138 397 
Q 2388 397 2633 464 
Q 2878 531 3122 666 
L 3122 134 
Q 2881 22 2623 -34 
Q 2366 -91 2075 -91 
Q 1284 -91 818 406 
Q 353 903 353 1747 
Q 353 2603 823 3093 
Q 1294 3584 2113 3584 
Q 2378 3584 2631 3529 
Q 2884 3475 3122 3366 
z
" transform="scale(0.015625)"/>
        <path id="DejaVuSans-6e" d="M 3513 2113 
L 3513 0 
L 2938 0 
L 2938 2094 
Q 2938 2591 2744 2837 
Q 2550 3084 2163 3084 
Q 1697 3084 1428 2787 
Q 1159 2491 1159 1978 
L 1159 0 
L 581 0 
L 581 3500 
L 1159 3500 
L 1159 2956 
Q 1366 3272 1645 3428 
Q 1925 3584 2291 3584 
Q 2894 3584 3203 3211 
Q 3513 2838 3513 2113 
z
" transform="scale(0.015625)"/>
       </defs>
       <use xlink:href="#DejaVuSans-68"/>
       <use xlink:href="#DejaVuSans-65" transform="translate(63.378906 0)"/>
       <use xlink:href="#DejaVuSans-61" transform="translate(124.902344 0)"/>
       <use xlink:href="#DejaVuSans-64" transform="translate(186.181641 0)"/>
       <use xlink:href="#DejaVuSans-5f" transform="translate(249.658203 0)"/>
       <use xlink:href="#DejaVuSans-63" transform="translate(299.658203 0)"/>
       <use xlink:href="#DejaVuSans-6f" transform="translate(354.638672 0)"/>
       <use xlink:href="#DejaVuSans-6e" transform="translate(415.820312 0)"/>
       <use xlink:href="#DejaVuSans-74" transform="translate(479.199219 0)"/>
       <use xlink:href="#DejaVuSans-72" transform="translate(518.408203 0)"/>
       <use xlink:href="#DejaVuSans-6f" transform="translate(557.271484 0)"/>
       <use xlink:href="#DejaVuSans-6c" transform="translate(618.453125 0)"/>
      </g>
     </g>
    </g>
    <g id="xtick_5">
     <g id="line2d_5">
      <path d="M 295.451468 315.168479 
L 384.526071 589.311916 
" clip-path="url(#pad92933f10)" style="fill: none; stroke: #b0b0b0; stroke-opacity: 0.3; stroke-width: 0.8; stroke-linecap: square"/>
     </g>
     <g id="text_5">
      <!-- data_completeness -->
      <g transform="translate(345.136918 604.984988) scale(0.09 -0.09)">
       <use xlink:href="#DejaVuSans-64"/>
       <use xlink:href="#DejaVuSans-61" transform="translate(63.476562 0)"/>
       <use xlink:href="#DejaVuSans-74" transform="translate(124.755859 0)"/>
       <use xlink:href="#DejaVuSans-61" transform="translate(163.964844 0)"/>
       <use xlink:href="#DejaVuSans-5f" transform="translate(225.244141 0)"/>
       <use xlink:href="#DejaVuSans-63" transform="translate(275.244141 0)"/>
       <use xlink:href="#DejaVuSans-6f" transform="translate(330.224609 0)"/>
       <use xlink:href="#DejaVuSans-6d" transform="translate(391.40625 0)"/>
       <use xlink:href="#DejaVuSans-70" transform="translate(488.818359 0)"/>
       <use xlink:href="#DejaVuSans-6c" transform="translate(552.294922 0)"/>
       <use xlink:href="#DejaVuSans-65" transform="translate(580.078125 0)"/>
       <use xlink:href="#DejaVuSans-74" transform="translate(641.601562 0)"/>
       <use xlink:href="#DejaVuSans-65" transform="translate(680.810547 0)"/>
       <use xlink:href="#DejaVuSans-6e" transform="translate(742.333984 0)"/>
       <use xlink:href="#DejaVuSans-65" transform="translate(805.712891 0)"/>
       <use xlink:href="#DejaVuSans-73" transform="translate(867.236328 0)"/>
       <use xlink:href="#DejaVuSans-73" transform="translate(919.335938 0)"/>
      </g>
     </g>
    </g>
   </g>
   <g id="matplotlib.axis_2">
    <g id="ytick_1">
     <g id="line2d_6">
      <path d="M 353.101762 315.168479 
C 353.101762 307.597911 351.610525 300.100958 348.713395 293.106666 
C 345.816264 286.112374 341.569581 279.756764 336.216382 274.403565 
C 330.863183 269.050366 324.507573 264.803683 317.513281 261.906552 
C 310.518989 259.009422 303.022036 257.518185 295.451468 257.518185 
C 287.880901 257.518185 280.383948 259.009422 273.389656 261.906552 
C 266.395364 264.803683 260.039754 269.050366 254.686555 274.403565 
C 249.333355 279.756764 245.086673 286.112374 242.189542 293.106666 
C 239.292411 300.100958 237.801175 307.597911 237.801175 315.168479 
C 237.801175 322.739046 239.292411 330.235999 242.189542 337.230291 
C 245.086673 344.224583 249.333355 350.580193 254.686555 355.933392 
C 260.039754 361.286592 266.395364 365.533274 273.389656 368.430405 
C 280.383948 371.327536 287.880901 372.818772 295.451468 372.818772 
C 303.022036 372.818772 310.518989 371.327536 317.513281 368.430405 
C 324.507573 365.533274 330.863183 361.286592 336.216382 355.933392 
C 341.569581 350.580193 345.816264 344.224583 348.713395 337.230291 
C 351.610525 330.235999 353.101762 322.739046 353.101762 315.168479 
" clip-path="url(#pad92933f10)" style="fill: none; stroke: #b0b0b0; stroke-opacity: 0.3; stroke-width: 0.8; stroke-linecap: square"/>
     </g>
     <g id="text_6">
      <!-- 20 -->
      <g transform="translate(348.713395 290.81901) scale(0.11 -0.11)">
       <defs>
        <path id="DejaVuSans-32" d="M 1228 531 
L 3431 531 
L 3431 0 
L 469 0 
L 469 531 
Q 828 903 1448 1529 
Q 2069 2156 2228 2338 
Q 2531 2678 2651 2914 
Q 2772 3150 2772 3378 
Q 2772 3750 2511 3984 
Q 2250 4219 1831 4219 
Q 1534 4219 1204 4116 
Q 875 4013 500 3803 
L 500 4441 
Q 881 4594 1212 4672 
Q 1544 4750 1819 4750 
Q 2544 4750 2975 4387 
Q 3406 4025 3406 3419 
Q 3406 3131 3298 2873 
Q 3191 2616 2906 2266 
Q 2828 2175 2409 1742 
Q 1991 1309 1228 531 
z
" transform="scale(0.015625)"/>
        <path id="DejaVuSans-30" d="M 2034 4250 
Q 1547 4250 1301 3770 
Q 1056 3291 1056 2328 
Q 1056 1369 1301 889 
Q 1547 409 2034 409 
Q 2525 409 2770 889 
Q 3016 1369 3016 2328 
Q 3016 3291 2770 3770 
Q 2525 4250 2034 4250 
z
M 2034 4750 
Q 2819 4750 3233 4129 
Q 3647 3509 3647 2328 
Q 3647 1150 3233 529 
Q 2819 -91 2034 -91 
Q 1250 -91 836 529 
Q 422 1150 422 2328 
Q 422 3509 836 4129 
Q 1250 4750 2034 4750 
z
" transform="scale(0.015625)"/>
       </defs>
       <use xlink:href="#DejaVuSans-32"/>
       <use xlink:href="#DejaVuSans-30" transform="translate(63.623047 0)"/>
      </g>
     </g>
    </g>
    <g id="ytick_2">
     <g id="line2d_7">
      <path d="M 410.752056 315.168479 
C 410.752056 300.027344 407.769582 285.033438 401.975321 271.044854 
C 396.18106 257.05627 387.687694 244.34505 376.981296 233.638651 
C 366.274897 222.932253 353.563677 214.438887 339.575093 208.644626 
C 325.586509 202.850365 310.592603 199.867891 295.451468 199.867891 
C 280.310334 199.867891 265.316428 202.850365 251.327844 208.644626 
C 237.33926 214.438887 224.62804 222.932253 213.921641 233.638651 
C 203.215242 244.34505 194.721877 257.05627 188.927616 271.044854 
C 183.133354 285.033438 180.150881 300.027344 180.150881 315.168479 
C 180.150881 330.309613 183.133354 345.303519 188.927616 359.292103 
C 194.721877 373.280687 203.215242 385.991907 213.921641 396.698306 
C 224.62804 407.404705 237.33926 415.89807 251.327844 421.692331 
C 265.316428 427.486593 280.310334 430.469066 295.451468 430.469066 
C 310.592603 430.469066 325.586509 427.486593 339.575093 421.692331 
C 353.563677 415.89807 366.274897 407.404705 376.981296 396.698306 
C 387.687694 385.991907 396.18106 373.280687 401.975321 359.292103 
C 407.769582 345.303519 410.752056 330.309613 410.752056 315.168479 
" clip-path="url(#pad92933f10)" style="fill: none; stroke: #b0b0b0; stroke-opacity: 0.3; stroke-width: 0.8; stroke-linecap: square"/>
     </g>
     <g id="text_7">
      <!-- 40 -->
      <g transform="translate(401.975321 268.757198) scale(0.11 -0.11)">
       <defs>
        <path id="DejaVuSans-34" d="M 2419 4116 
L 825 1625 
L 2419 1625 
L 2419 4116 
z
M 2253 4666 
L 3047 4666 
L 3047 1625 
L 3713 1625 
L 3713 1100 
L 3047 1100 
L 3047 0 
L 2419 0 
L 2419 1100 
L 313 1100 
L 313 1709 
L 2253 4666 
z
" transform="scale(0.015625)"/>
       </defs>
       <use xlink:href="#DejaVuSans-34"/>
       <use xlink:href="#DejaVuSans-30" transform="translate(63.623047 0)"/>
      </g>
     </g>
    </g>
    <g id="ytick_3">
     <g id="line2d_8">
      <path d="M 468.402349 315.168479 
C 468.402349 292.456777 463.928639 269.965918 455.237247 248.983042 
C 446.545856 228.000165 433.805807 208.933336 417.746209 192.873738 
C 401.686611 176.81414 382.619781 164.074091 361.636905 155.382699 
C 340.654029 146.691308 318.16317 142.217598 295.451468 142.217598 
C 272.739767 142.217598 250.248908 146.691308 229.266032 155.382699 
C 208.283155 164.074091 189.216326 176.81414 173.156728 192.873738 
C 157.097129 208.933336 144.357081 228.000165 135.665689 248.983042 
C 126.974297 269.965918 122.500587 292.456777 122.500587 315.168479 
C 122.500587 337.88018 126.974297 360.371039 135.665689 381.353915 
C 144.357081 402.336792 157.097129 421.403621 173.156728 437.463219 
C 189.216326 453.522818 208.283155 466.262866 229.266032 474.954258 
C 250.248908 483.64565 272.739767 488.11936 295.451468 488.11936 
C 318.16317 488.11936 340.654029 483.64565 361.636905 474.954258 
C 382.619781 466.262866 401.686611 453.522818 417.746209 437.463219 
C 433.805807 421.403621 446.545856 402.336792 455.237247 381.353915 
C 463.928639 360.371039 468.402349 337.88018 468.402349 315.168479 
" clip-path="url(#pad92933f10)" style="fill: none; stroke: #b0b0b0; stroke-opacity: 0.3; stroke-width: 0.8; stroke-linecap: square"/>
     </g>
     <g id="text_8">
      <!-- 60 -->
      <g transform="translate(455.237247 246.695386) scale(0.11 -0.11)">
       <defs>
        <path id="DejaVuSans-36" d="M 2113 2584 
Q 1688 2584 1439 2293 
Q 1191 2003 1191 1497 
Q 1191 994 1439 701 
Q 1688 409 2113 409 
Q 2538 409 2786 701 
Q 3034 994 3034 1497 
Q 3034 2003 2786 2293 
Q 2538 2584 2113 2584 
z
M 3366 4563 
L 3366 3988 
Q 3128 4100 2886 4159 
Q 2644 4219 2406 4219 
Q 1781 4219 1451 3797 
Q 1122 3375 1075 2522 
Q 1259 2794 1537 2939 
Q 1816 3084 2150 3084 
Q 2853 3084 3261 2657 
Q 3669 2231 3669 1497 
Q 3669 778 3244 343 
Q 2819 -91 2113 -91 
Q 1303 -91 875 529 
Q 447 1150 447 2328 
Q 447 3434 972 4092 
Q 1497 4750 2381 4750 
Q 2619 4750 2861 4703 
Q 3103 4656 3366 4563 
z
" transform="scale(0.015625)"/>
       </defs>
       <use xlink:href="#DejaVuSans-36"/>
       <use xlink:href="#DejaVuSans-30" transform="translate(63.623047 0)"/>
      </g>
     </g>
    </g>
    <g id="ytick_4">
     <g id="line2d_9">
      <path d="M 526.052643 315.168479 
C 526.052643 284.88621 520.087696 254.898398 508.499174 226.921229 
C 496.910651 198.944061 479.92392 173.521622 458.511123 152.108824 
C 437.098325 130.696027 411.675886 113.709296 383.698717 102.120773 
C 355.721549 90.532251 325.733737 84.567304 295.451468 84.567304 
C 265.1692 84.567304 235.181388 90.532251 207.204219 102.120773 
C 179.227051 113.709296 153.804612 130.696027 132.391814 152.108824 
C 110.979016 173.521622 93.992285 198.944061 82.403763 226.921229 
C 70.81524 254.898398 64.850294 284.88621 64.850294 315.168479 
C 64.850294 345.450747 70.81524 375.438559 82.403763 403.415728 
C 93.992285 431.392896 110.979016 456.815335 132.391814 478.228133 
C 153.804612 499.640931 179.227051 516.627661 207.204219 528.216184 
C 235.181388 539.804707 265.1692 545.769653 295.451468 545.769653 
C 325.733737 545.769653 355.721549 539.804707 383.698717 528.216184 
C 411.675886 516.627661 437.098325 499.640931 458.511123 478.228133 
C 479.92392 456.815335 496.910651 431.392896 508.499174 403.415728 
C 520.087696 375.438559 526.052643 345.450747 526.052643 315.168479 
" clip-path="url(#pad92933f10)" style="fill: none; stroke: #b0b0b0; stroke-opacity: 0.3; stroke-width: 0.8; stroke-linecap: square"/>
     </g>
     <g id="text_9">
      <!-- 80 -->
      <g transform="translate(508.499174 224.633573) scale(0.11 -0.11)">
       <defs>
        <path id="DejaVuSans-38" d="M 2034 2216 
Q 1584 2216 1326 1975 
Q 1069 1734 1069 1313 
Q 1069 891 1326 650 
Q 1584 409 2034 409 
Q 2484 409 2743 651 
Q 3003 894 3003 1313 
Q 3003 1734 2745 1975 
Q 2488 2216 2034 2216 
z
M 1403 2484 
Q 997 2584 770 2862 
Q 544 3141 544 3541 
Q 544 4100 942 4425 
Q 1341 4750 2034 4750 
Q 2731 4750 3128 4425 
Q 3525 4100 3525 3541 
Q 3525 3141 3298 2862 
Q 3072 2584 2669 2484 
Q 3125 2378 3379 2068 
Q 3634 1759 3634 1313 
Q 3634 634 3220 271 
Q 2806 -91 2034 -91 
Q 1263 -91 848 271 
Q 434 634 434 1313 
Q 434 1759 690 2068 
Q 947 2378 1403 2484 
z
M 1172 3481 
Q 1172 3119 1398 2916 
Q 1625 2713 2034 2713 
Q 2441 2713 2670 2916 
Q 2900 3119 2900 3481 
Q 2900 3844 2670 4047 
Q 2441 4250 2034 4250 
Q 1625 4250 1398 4047 
Q 1172 3844 1172 3481 
z
" transform="scale(0.015625)"/>
       </defs>
       <use xlink:href="#DejaVuSans-38"/>
       <use xlink:href="#DejaVuSans-30" transform="translate(63.623047 0)"/>
      </g>
     </g>
    </g>
    <g id="ytick_5">
     <g id="line2d_10">
      <path d="M 583.702937 315.168479 
C 583.702937 277.315643 576.246753 239.830878 561.7611 204.859417 
C 547.275447 169.887957 526.042033 138.109908 499.276036 111.343911 
C 472.510039 84.577914 440.73199 63.3445 405.76053 48.858847 
C 370.789069 34.373194 333.304304 26.91701 295.451468 26.91701 
C 257.598632 26.91701 220.113867 34.373194 185.142407 48.858847 
C 150.170947 63.3445 118.392897 84.577914 91.6269 111.343911 
C 64.860903 138.109908 43.62749 169.887957 29.141837 204.859417 
C 14.656183 239.830878 7.2 277.315643 7.2 315.168479 
C 7.2 353.021315 14.656183 390.506079 29.141837 425.47754 
C 43.62749 460.449 64.860903 492.227049 91.6269 518.993046 
C 118.392897 545.759044 150.170947 566.992457 185.142407 581.47811 
C 220.113867 595.963764 257.598632 603.419947 295.451468 603.419947 
C 333.304304 603.419947 370.789069 595.963764 405.76053 581.47811 
C 440.73199 566.992457 472.510039 545.759044 499.276036 518.993046 
C 526.042033 492.227049 547.275447 460.449 561.7611 425.47754 
C 576.246753 390.506079 583.702937 353.021315 583.702937 315.168479 
" clip-path="url(#pad92933f10)" style="fill: none; stroke: #b0b0b0; stroke-opacity: 0.3; stroke-width: 0.8; stroke-linecap: square"/>
     </g>
     <g id="text_10">
      <!-- 100 -->
      <g transform="translate(561.7611 202.571761) scale(0.11 -0.11)">
       <defs>
        <path id="DejaVuSans-31" d="M 794 531 
L 1825 531 
L 1825 4091 
L 703 3866 
L 703 4441 
L 1819 4666 
L 2450 4666 
L 2450 531 
L 3481 531 
L 3481 0 
L 794 0 
L 794 531 
z
" transform="scale(0.015625)"/>
       </defs>
       <use xlink:href="#DejaVuSans-31"/>
       <use xlink:href="#DejaVuSans-30" transform="translate(63.623047 0)"/>
       <use xlink:href="#DejaVuSans-30" transform="translate(127.246094 0)"/>
      </g>
     </g>
    </g>
   </g>
   <g id="line2d_11">
    <path d="M 583.702937 315.168479 
L 295.451468 315.168479 
L 71.812346 152.685145 
L 292.653064 317.201638 
L 384.526071 589.311916 
L 583.702937 315.168479 
" clip-path="url(#pad92933f10)" style="fill: none; stroke-dasharray: 5.55,2.4; stroke-dashoffset: 0; stroke: #1f77b4; stroke-width: 1.5"/>
   </g>
   <g id="patch_3">
    <path d="M 583.702937 315.168479 
C 583.702937 277.315643 576.246753 239.830878 561.7611 204.859417 
C 547.275447 169.887957 526.042033 138.109908 499.276036 111.343911 
C 472.510039 84.577914 440.73199 63.3445 405.76053 48.858847 
C 370.789069 34.373194 333.304304 26.91701 295.451468 26.91701 
C 257.598632 26.91701 220.113867 34.373194 185.142407 48.858847 
C 150.170947 63.3445 118.392897 84.577914 91.6269 111.343911 
C 64.860903 138.109908 43.62749 169.887957 29.141837 204.859417 
C 14.656183 239.830878 7.2 277.315643 7.2 315.168479 
C 7.2 353.021315 14.656183 390.506079 29.141837 425.47754 
C 43.62749 460.449 64.860903 492.227049 91.6269 518.993046 
C 118.392897 545.759044 150.170947 566.992457 185.142407 581.47811 
C 220.113867 595.963764 257.598632 603.419947 295.451468 603.419947 
C 333.304304 603.419947 370.789069 595.963764 405.76053 581.47811 
C 440.73199 566.992457 472.510039 545.759044 499.276036 518.993046 
C 526.042033 492.227049 547.275447 460.449 561.7611 425.47754 
C 576.246753 390.506079 583.702937 353.021315 583.702937 315.168479 
" style="fill: none; stroke: #000000; stroke-width: 0.8; stroke-linejoin: miter; stroke-linecap: square"/>
   </g>
   <g id="text_11">
    <!-- N/A -->
    <g style="fill: #ff0000" transform="translate(381.903551 27.317869) scale(0.08 -0.08)">
     <defs>
      <path id="DejaVuSans-4e" d="M 628 4666 
L 1478 4666 
L 3547 763 
L 3547 4666 
L 4159 4666 
L 4159 0 
L 3309 0 
L 1241 3903 
L 1241 0 
L 628 0 
L 628 4666 
z
" transform="scale(0.015625)"/>
      <path id="DejaVuSans-2f" d="M 1625 4666 
L 2156 4666 
L 531 -594 
L 0 -594 
L 1625 4666 
z
" transform="scale(0.015625)"/>
      <path id="DejaVuSans-41" d="M 2188 4044 
L 1331 1722 
L 3047 1722 
L 2188 4044 
z
M 1831 4666 
L 2547 4666 
L 4325 0 
L 3669 0 
L 3244 1197 
L 1141 1197 
L 716 0 
L 50 0 
L 1831 4666 
z
" transform="scale(0.015625)"/>
     </defs>
     <use xlink:href="#DejaVuSans-4e"/>
     <use xlink:href="#DejaVuSans-2f" transform="translate(74.804688 0)"/>
     <use xlink:href="#DejaVuSans-41" transform="translate(108.496094 0)"/>
    </g>
   </g>
   <g id="text_12">
    <!-- 当前片段运动稳定性概览 -->
    <g transform="translate(251.880125 17.229938) scale(0.132 -0.132)">
     <defs>
      <path id="DejaVuSans-5f53" d="M 319 -1131 
L 319 4513 
L 3519 4513 
L 3519 -1131 
L 319 -1131 
z
M 678 -775 
L 3163 -775 
L 3163 4153 
L 678 4153 
L 678 -775 
z
" transform="scale(0.015625)"/>
      <path id="DejaVuSans-524d" d="M 319 -1131 
L 319 4513 
L 3519 4513 
L 3519 -1131 
L 319 -1131 
z
M 678 -775 
L 3163 -775 
L 3163 4153 
L 678 4153 
L 678 -775 
z
" transform="scale(0.015625)"/>
      <path id="DejaVuSans-7247" d="M 319 -1131 
L 319 4513 
L 3519 4513 
L 3519 -1131 
L 319 -1131 
z
M 678 -775 
L 3163 -775 
L 3163 4153 
L 678 4153 
L 678 -775 
z
" transform="scale(0.015625)"/>
      <path id="DejaVuSans-6bb5" d="M 319 -1131 
L 319 4513 
L 3519 4513 
L 3519 -1131 
L 319 -1131 
z
M 678 -775 
L 3163 -775 
L 3163 4153 
L 678 4153 
L 678 -775 
z
" transform="scale(0.015625)"/>
      <path id="DejaVuSans-8fd0" d="M 319 -1131 
L 319 4513 
L 3519 4513 
L 3519 -1131 
L 319 -1131 
z
M 678 -775 
L 3163 -775 
L 3163 4153 
L 678 4153 
L 678 -775 
z
" transform="scale(0.015625)"/>
      <path id="DejaVuSans-52a8" d="M 319 -1131 
L 319 4513 
L 3519 4513 
L 3519 -1131 
L 319 -1131 
z
M 678 -775 
L 3163 -775 
L 3163 4153 
L 678 4153 
L 678 -775 
z
" transform="scale(0.015625)"/>
      <path id="DejaVuSans-7a33" d="M 319 -1131 
L 319 4513 
L 3519 4513 
L 3519 -1131 
L 319 -1131 
z
M 678 -775 
L 3163 -775 
L 3163 4153 
L 678 4153 
L 678 -775 
z
" transform="scale(0.015625)"/>
      <path id="DejaVuSans-5b9a" d="M 319 -1131 
L 319 4513 
L 3519 4513 
L 3519 -1131 
L 319 -1131 
z
M 678 -775 
L 3163 -775 
L 3163 4153 
L 678 4153 
L 678 -775 
z
" transform="scale(0.015625)"/>
      <path id="DejaVuSans-6027" d="M 319 -1131 
L 319 4513 
L 3519 4513 
L 3519 -1131 
L 319 -1131 
z
M 678 -775 
L 3163 -775 
L 3163 4153 
L 678 4153 
L 678 -775 
z
" transform="scale(0.015625)"/>
      <path id="DejaVuSans-6982" d="M 319 -1131 
L 319 4513 
L 3519 4513 
L 3519 -1131 
L 319 -1131 
z
M 678 -775 
L 3163 -775 
L 3163 4153 
L 678 4153 
L 678 -775 
z
" transform="scale(0.015625)"/>
      <path id="DejaVuSans-89c8" d="M 319 -1131 
L 319 4513 
L 3519 4513 
L 3519 -1131 
L 319 -1131 
z
M 678 -775 
L 3163 -775 
L 3163 4153 
L 678 4153 
L 678 -775 
z
" transform="scale(0.015625)"/>
     </defs>
     <use xlink:href="#DejaVuSans-5f53"/>
     <use xlink:href="#DejaVuSans-524d" transform="translate(60.009766 0)"/>
     <use xlink:href="#DejaVuSans-7247" transform="translate(120.019531 0)"/>
     <use xlink:href="#DejaVuSans-6bb5" transform="translate(180.029297 0)"/>
     <use xlink:href="#DejaVuSans-8fd0" transform="translate(240.039062 0)"/>
     <use xlink:href="#DejaVuSans-52a8" transform="translate(300.048828 0)"/>
     <use xlink:href="#DejaVuSans-7a33" transform="translate(360.058594 0)"/>
     <use xlink:href="#DejaVuSans-5b9a" transform="translate(420.068359 0)"/>
     <use xlink:href="#DejaVuSans-6027" transform="translate(480.078125 0)"/>
     <use xlink:href="#DejaVuSans-6982" transform="translate(540.087891 0)"/>
     <use xlink:href="#DejaVuSans-89c8" transform="translate(600.097656 0)"/>
    </g>
   </g>
  </g>
 </g>
 <defs>
  <clipPath id="pad92933f10">
   <path d="M 583.702937 315.168479 
C 583.702937 277.315643 576.246753 239.830878 561.7611 204.859417 
C 547.275447 169.887957 526.042033 138.109908 499.276036 111.343911 
C 472.510039 84.577914 440.73199 63.3445 405.76053 48.858847 
C 370.789069 34.373194 333.304304 26.91701 295.451468 26.91701 
C 257.598632 26.91701 220.113867 34.373194 185.142407 48.858847 
C 150.170947 63.3445 118.392897 84.577914 91.6269 111.343911 
C 64.860903 138.109908 43.62749 169.887957 29.141837 204.859417 
C 14.656183 239.830878 7.2 277.315643 7.2 315.168479 
C 7.2 353.021315 14.656183 390.506079 29.141837 425.47754 
C 43.62749 460.449 64.860903 492.227049 91.6269 518.993046 
C 118.392897 545.759044 150.170947 566.992457 185.142407 581.47811 
C 220.113867 595.963764 257.598632 603.419947 295.451468 603.419947 
C 333.304304 603.419947 370.789069 595.963764 405.76053 581.47811 
C 440.73199 566.992457 472.510039 545.759044 499.276036 518.993046 
C 526.042033 492.227049 547.275447 460.449 561.7611 425.47754 
C 576.246753 390.506079 583.702937 353.021315 583.702937 315.168479 
M 295.451468 315.168479 
C 295.451468 315.168479 295.451468 315.168479 295.451468 315.168479 
C 295.451468 315.168479 295.451468 315.168479 295.451468 315.168479 
C 295.451468 315.168479 295.451468 315.168479 295.451468 315.168479 
C 295.451468 315.168479 295.451468 315.168479 295.451468 315.168479 
C 295.451468 315.168479 295.451468 315.168479 295.451468 315.168479 
C 295.451468 315.168479 295.451468 315.168479 295.451468 315.168479 
C 295.451468 315.168479 295.451468 315.168479 295.451468 315.168479 
C 295.451468 315.168479 295.451468 315.168479 295.451468 315.168479 
C 295.451468 315.168479 295.451468 315.168479 295.451468 315.168479 
C 295.451468 315.168479 295.451468 315.168479 295.451468 315.168479 
C 295.451468 315.168479 295.451468 315.168479 295.451468 315.168479 
C 295.451468 315.168479 295.451468 315.168479 295.451468 315.168479 
C 295.451468 315.168479 295.451468 315.168479 295.451468 315.168479 
C 295.451468 315.168479 295.451468 315.168479 295.451468 315.168479 
C 295.451468 315.168479 295.451468 315.168479 295.451468 315.168479 
C 295.451468 315.168479 295.451468 315.168479 295.451468 315.168479 
z
"/>
  </clipPath>
 </defs>
</svg>
